<?xml version="1.0" encoding="utf-8"?>
<!-- Generator: Adobe Illustrator 28.2.0, SVG Export Plug-In . SVG Version: 6.00 Build 0)  -->
<svg version="1.1" id="Layer_1" xmlns="http://www.w3.org/2000/svg" xmlns:xlink="http://www.w3.org/1999/xlink" x="0px" y="0px"
	 viewBox="0 0 768 1146" style="enable-background:new 0 0 768 1146;" xml:space="preserve">
<style type="text/css">
	.st0{fill:#AAD9FF;}
	.st1{opacity:0.27;fill:#AAD9FF;}
	.st2{fill:#FFFFFF;}
	.st3{fill:#3FA9F5;}
</style>
<g>
	<rect x="-0.4" y="0.3" class="st0" width="768.4" height="235"/>
</g>
<rect x="-0.1" y="257" class="st1" width="768.1" height="74"/>
<g>
	<path class="st2" d="M51.2,68.4c0-14.6,11.4-26,26.7-26c15,0,24.9,9.6,25.7,21.4H87.5c-0.4-2.8-4.2-6.7-10-6.7
		c-5.8,0-10.7,4.2-10.7,11c0,6.8,5.1,11.4,10.5,11.4c4.2,0,7.1-1.4,8.9-4.5h-8.9v-5.3h26.4C103.5,83,93.1,94.4,77.9,94.4
		S51.2,83.1,51.2,68.4z"/>
	<path class="st2" d="M109.4,50.1h14.8v43.6h-14.8V50.1z"/>
	<path class="st2" d="M145.8,61.7V66h26.6v11.7h-26.6v16H131V50.1h41.4v11.7H145.8z"/>
	<path class="st2" d="M198.8,82h25.1c1.9,0,2.7-1,2.7-2.2c0-1.4-0.9-2.1-2.7-2.1h-11.3c-8.2,0-14.5-4.2-14.5-13.8
		c0-10.1,8.3-13.8,15.3-13.8h26.1v11.7h-23.8c-1.8,0-2.5,0.9-2.5,2.1c0,1.2,0.7,2.2,2.5,2.2h9.6c10.4,0,16.3,5.3,16.3,13.5
		s-6.2,14.2-16.1,14.2h-26.6V82z"/>
	<path class="st2" d="M262.1,61.7V66h26.6v11.7h-26.6V82h26.6v11.7h-41.4V50.1h41.4v11.7H262.1z"/>
	<path class="st2" d="M331.3,77l9.6,16.6h-15.6l-8.7-16.1h-6.7v16.1h-14.8V50.1h31.3c7,0,14.5,4.2,14.5,13.6
		C341,70.3,336.8,75.3,331.3,77z M309.9,66h14.6c1.2,0,2.2-1,2.2-2.2c0-1.4-1-2.2-2.2-2.2h-14.6V66z"/>
	<path class="st2" d="M346.1,50.1h14.8v43.6h-14.8V50.1z"/>
	<path class="st2" d="M382.4,61.7V66h26.6v11.7h-26.6V82h26.6v11.7h-41.4V50.1h41.4v11.7H382.4z"/>
	<path class="st2" d="M415.3,82h25.1c1.9,0,2.7-1,2.7-2.2c0-1.4-0.9-2.1-2.7-2.1H429c-8.2,0-14.5-4.2-14.5-13.8
		c0-10.1,8.3-13.8,15.3-13.8h26.1v11.7H432c-1.8,0-2.5,0.9-2.5,2.1c0,1.2,0.7,2.2,2.5,2.2h9.6c10.4,0,16.3,5.3,16.3,13.5
		s-6.2,14.2-16.1,14.2h-26.6V82z"/>
	<path class="st2" d="M52.7,128.8h2.2l1.4,19.3h-3.7L52.7,128.8z M60,128.8h2.2l1.4,19.3H60L60,128.8z"/>
	<path class="st2" d="M70.8,129.6h16.8l20,26.2h0.5v-26.2H125V180h-16.8l-19.9-25.3h-0.6V180H70.8V129.6z"/>
	<path class="st2" d="M131.5,136.5h14.8V180h-14.8V136.5z"/>
	<path class="st2" d="M152,158.3c0-12.4,9.9-22.5,22.6-22.5c11.4,0,20.6,7.3,22.2,18.2l-14.5-0.1c-1.6-3.3-4.5-4.9-7.7-4.9
		c-5,0-8.9,3.5-8.9,8.9c0,5,3.5,9.1,9.1,9.1c3.1,0,5.8-1.7,6.3-4.2l-6.9-0.1v-5.1l22.8,0.1l-0.1,2.4c-0.9,11.6-10.4,20.7-22.3,20.7
		C161.9,180.8,152,170.6,152,158.3z"/>
	<path class="st2" d="M252.8,136.5V180H238v-16h-20.4v16h-14.8v-43.6h14.8v15.9H238v-15.9H252.8z"/>
	<path class="st2" d="M271.6,148.1h-14.5v-11.7h43.9v11.7h-14.5V180h-14.8V148.1z"/>
	<path class="st2" d="M355.7,175H340l-1.4,5H322l14.5-43.6h22.6l14.5,43.6h-16.6L355.7,175z M352.4,163.3l-4.2-15.2h-0.7l-4.2,15.2
		H352.4z"/>
	<path class="st2" d="M374.9,158.2c0-12.4,10.1-22.5,22.5-22.5c6.2,0,11.8,2.5,15.9,6.6L403,152.5c-1.4-1.4-3.4-2.3-5.6-2.3
		c-4.5,0-8,3.5-8,7.9c0,4.5,3.5,8,8,8c2.2,0,4.2-0.9,5.7-2.4l10.4,10.3c-4.1,4.2-9.8,6.8-16.1,6.8
		C385,180.7,374.9,170.7,374.9,158.2z"/>
	<path class="st2" d="M430.2,148.1h-14.5v-11.7h43.9v11.7h-14.5V180h-14.8V148.1z"/>
	<path class="st2" d="M463.8,136.5h14.8V180h-14.8V136.5z"/>
	<path class="st2" d="M481.4,136.5h16.7l8.9,31.9h0.7l8.9-31.9h16.7L518.9,180H496L481.4,136.5z"/>
	<path class="st2" d="M536.3,136.5h14.8V180h-14.8V136.5z"/>
	<path class="st2" d="M569.9,148.1h-14.5v-11.7h43.9v11.7h-14.5V180h-14.8V148.1z"/>
	<path class="st2" d="M603.5,136.5h14.8V180h-14.8V136.5z"/>
	<path class="st2" d="M639.9,148.1v4.2h26.6V164h-26.6v4.3h26.6V180h-41.4v-43.6h41.4v11.7H639.9z"/>
	<path class="st2" d="M672.7,168.4h25.1c1.9,0,2.7-1,2.7-2.2c0-1.4-0.9-2.1-2.7-2.1h-11.3c-8.2,0-14.5-4.2-14.5-13.8
		c0-10.1,8.3-13.8,15.3-13.8h26.1v11.7h-23.8c-1.8,0-2.5,0.9-2.5,2.1c0,1.2,0.7,2.2,2.5,2.2h9.6c10.4,0,16.3,5.3,16.3,13.5
		s-6.2,14.2-16.1,14.2h-26.6V168.4z"/>
	<path class="st2" d="M724.8,148.1h-2.2l-1.4-19.3h3.7L724.8,148.1z M732,148.1h-2.2l-1.4-19.3h3.7L732,148.1z"/>
</g>
<g>
	<path class="st3" d="M27.6,281.6h9.8v29h-9.8V281.6z"/>
	<path class="st3" d="M41.8,281.6h9.8l13,15.4h0.3v-15.4h9.8v29h-9.8l-13-15h-0.4v15h-9.8V281.6z"/>
	<path class="st3" d="M78.9,302.8h16.7c1.2,0,1.8-0.7,1.8-1.5c0-0.9-0.6-1.4-1.8-1.4H88c-5.5,0-9.6-2.8-9.6-9.2
		c0-6.7,5.5-9.2,10.2-9.2h17.4v7.8H90.1c-1.2,0-1.7,0.6-1.7,1.4c0,0.8,0.5,1.4,1.7,1.4h6.4c6.9,0,10.9,3.6,10.9,9
		c0,5.4-4.1,9.5-10.8,9.5H78.9V302.8z"/>
	<path class="st3" d="M141.6,290.6c0,5.4-4.3,9.3-9.2,9.3h-11.6v10.7H111v-29h20.9C136.6,281.6,141.6,284.3,141.6,290.6z M132,290.7
		c0-1-0.7-1.4-1.4-1.4h-9.7v2.9h9.7C131.4,292.2,132,291.5,132,290.7z"/>
	<path class="st3" d="M144.5,281.6h9.8v29h-9.8V281.6z"/>
	<path class="st3" d="M182.7,299.5l6.4,11.1h-10.4l-5.8-10.7h-4.5v10.7h-9.8v-29h20.9c4.7,0,9.7,2.8,9.7,9.1
		C189.2,295.1,186.4,298.4,182.7,299.5z M168.5,292.2h9.7c0.8,0,1.4-0.7,1.4-1.5c0-1-0.7-1.4-1.4-1.4h-9.7V292.2z"/>
	<path class="st3" d="M212.7,307.2h-10.5l-1,3.4h-11l9.7-29H215l9.7,29h-11L212.7,307.2z M210.6,299.5l-2.8-10.1h-0.5l-2.8,10.1
		H210.6z"/>
	<path class="st3" d="M233.1,289.3h-9.7v-7.8h29.2v7.8h-9.7v21.3h-9.8V289.3z"/>
	<path class="st3" d="M255.5,281.6h9.8v29h-9.8V281.6z"/>
	<path class="st3" d="M268.9,296.1c0-8.3,6.7-15,15-15c8.3,0,15,6.7,15,15c0,8.3-6.7,15-15,15C275.7,311.1,268.9,304.4,268.9,296.1z
		 M289.2,296c0-2.9-2.4-5.3-5.3-5.3c-3,0-5.3,2.4-5.3,5.3c0,3,2.4,5.3,5.3,5.3C286.9,301.3,289.2,299,289.2,296z"/>
	<path class="st3" d="M302.5,281.6h9.8l13,15.4h0.3v-15.4h9.8v29h-9.8l-13-15h-0.4v15h-9.8V281.6z"/>
	<path class="st3" d="M340.1,292.1h20.5v8.9h-20.5V292.1z"/>
	<path class="st3" d="M377.5,294.7h11.2c0.1,4.7,1.9,7.1,5.3,7.1c3.3,0,5-2.4,5-6.9V277h11.2v18.2c0,11.3-7.2,15.9-16.3,15.9
		C383.7,311.1,377.5,305.2,377.5,294.7z"/>
	<path class="st3" d="M414.7,281.6h9.8v29h-9.8V281.6z"/>
	<path class="st3" d="M428.9,281.6h10l7.2,9.2h0.4l7.2-9.2h10v29h-9.8v-16.1h-0.3l-7,7.8H446l-7-7.8h-0.3v16.1h-9.8V281.6z"/>
	<path class="st3" d="M467.9,281.6h10l7.2,9.2h0.4l7.2-9.2h10v29h-9.8v-16.1h-0.3l-7,7.8h-0.5l-7-7.8h-0.3v16.1h-9.8V281.6z"/>
	<path class="st3" d="M518.7,299.9l-14.1-18.4h12l6.7,9.2h0.3l6.5-9.2h12l-13.6,18.4v10.7h-9.8V299.9z"/>
	<path class="st3" d="M580,307.2h-12.1l-0.9,3.4h-11.7l9.8-33.6h17.7l9.8,33.6h-11.7L580,307.2z M577.6,298.2l-3.3-12.3h-0.8
		l-3.3,12.3H577.6z"/>
	<path class="st3" d="M618.9,299.5l6.4,11.1h-10.4l-5.8-10.7h-4.5v10.7h-9.8v-29h20.9c4.7,0,9.7,2.8,9.7,9.1
		C625.3,295.1,622.5,298.4,618.9,299.5z M604.6,292.2h9.7c0.8,0,1.4-0.7,1.4-1.5c0-1-0.7-1.4-1.4-1.4h-9.7V292.2z"/>
	<path class="st3" d="M627.5,296.1c0-8.3,6.7-15,15-15c4.1,0,7.9,1.7,10.6,4.4l-6.9,6.8c-1-1-2.3-1.5-3.7-1.5c-3,0-5.3,2.4-5.3,5.3
		c0,3,2.4,5.3,5.3,5.3c1.5,0,2.8-0.6,3.8-1.6l6.9,6.9c-2.7,2.8-6.5,4.5-10.7,4.5C634.2,311.1,627.5,304.4,627.5,296.1z"/>
	<path class="st3" d="M676.3,307.2h-10.5l-1,3.4h-11l9.7-29h15.1l9.7,29h-11L676.3,307.2z M674.1,299.5l-2.8-10.1h-0.5l-2.8,10.1
		H674.1z"/>
</g>
</svg>
