<?xml version="1.0" encoding="utf-8"?>
<!-- Generator: Adobe Illustrator 28.2.0, SVG Export Plug-In . SVG Version: 6.00 Build 0)  -->
<svg version="1.1" id="Layer_1" xmlns="http://www.w3.org/2000/svg" xmlns:xlink="http://www.w3.org/1999/xlink" x="0px" y="0px"
	 viewBox="0 0 425 1814" style="enable-background:new 0 0 425 1814;" xml:space="preserve">
<style type="text/css">
	.st0{fill:#AAD9FF;}
	.st1{opacity:0.27;fill:#AAD9FF;}
	.st2{fill:#FFFFFF;}
	.st3{fill:#3FA9F5;}
</style>
<g>
	<rect x="-0.2" y="0.2" class="st0" width="425.7" height="235"/>
</g>
<rect x="0.1" y="256.9" class="st1" width="425.4" height="147.1"/>
<g>
	<path class="st2" d="M53.5,54.5c0-12.2,9.5-21.7,22.3-21.7c12.5,0,20.8,8,21.4,17.8H83.7c-0.4-2.3-3.5-5.6-8.3-5.6
		s-8.9,3.5-8.9,9.2s4.3,9.5,8.8,9.5c3.5,0,5.9-1.2,7.4-3.7h-7.4v-4.4h22c-0.1,11-8.8,20.6-21.5,20.6C63,76.2,53.5,66.7,53.5,54.5z"
		/>
	<path class="st2" d="M102,39.2h12.3v36.3H102V39.2z"/>
	<path class="st2" d="M132.3,48.9v3.5h22.2v9.7h-22.2v13.3H120V39.2h34.5v9.7H132.3z"/>
	<path class="st2" d="M176.5,65.8h20.9c1.6,0,2.2-0.8,2.2-1.9c0-1.1-0.7-1.7-2.3-1.7h-9.4c-6.8,0-12.1-3.5-12.1-11.5
		c0-8.4,6.9-11.5,12.7-11.5h21.7v9.7h-19.8c-1.5,0-2.1,0.8-2.1,1.7s0.6,1.8,2.1,1.8h8c8.6,0,13.6,4.4,13.6,11.2
		c0,6.8-5.2,11.8-13.4,11.8h-22.2V65.8z"/>
	<path class="st2" d="M229.2,48.9v3.5h22.2v9.7h-22.2v3.6h22.2v9.7h-34.5V39.2h34.5v9.7H229.2z"/>
	<path class="st2" d="M286.9,61.6l8,13.9h-13l-7.3-13.4h-5.6v13.4h-12.3V39.2h26.1c5.8,0,12.1,3.5,12.1,11.3
		C295,56.1,291.5,60.3,286.9,61.6z M269.1,52.5h12.2c1,0,1.8-0.8,1.8-1.9c0-1.2-0.8-1.8-1.8-1.8h-12.2V52.5z"/>
	<path class="st2" d="M299.2,39.2h12.3v36.3h-12.3V39.2z"/>
	<path class="st2" d="M329.5,48.9v3.5h22.2v9.7h-22.2v3.6h22.2v9.7h-34.5V39.2h34.5v9.7H329.5z"/>
	<path class="st2" d="M356.9,65.8h20.9c1.6,0,2.2-0.8,2.2-1.9c0-1.1-0.7-1.7-2.3-1.7h-9.4c-6.8,0-12.1-3.5-12.1-11.5
		c0-8.4,6.9-11.5,12.7-11.5h21.7v9.7h-19.8c-1.5,0-2.1,0.8-2.1,1.7s0.6,1.8,2.1,1.8h8c8.6,0,13.6,4.4,13.6,11.2
		c0,6.8-5.2,11.8-13.4,11.8h-22.2V65.8z"/>
	<path class="st2" d="M120.6,104.8h1.9l1.1,16.1h-3.1L120.6,104.8z M126.7,104.8h1.9l1.1,16.1h-3.1L126.7,104.8z"/>
	<path class="st2" d="M135.7,105.5h14l16.7,21.8h0.4v-21.8h14v42h-14l-16.6-21.1h-0.5v21.1h-14V105.5z"/>
	<path class="st2" d="M186.3,111.2h12.3v36.3h-12.3V111.2z"/>
	<path class="st2" d="M203.4,129.4c0-10.3,8.2-18.8,18.8-18.8c9.5,0,17.2,6.1,18.5,15.2l-12.1-0.1c-1.3-2.8-3.8-4.1-6.4-4.1
		c-4.2,0-7.4,2.9-7.4,7.4c0,4.1,2.9,7.6,7.6,7.6c2.6,0,4.8-1.4,5.3-3.5l-5.8-0.1v-4.3l19,0.1l-0.1,2c-0.7,9.7-8.6,17.3-18.6,17.3
		C211.6,148.2,203.4,139.6,203.4,129.4z"/>
	<path class="st2" d="M287.4,111.2v36.3h-12.3v-13.3h-17v13.3h-12.3v-36.3h12.3v13.3h17v-13.3H287.4z"/>
	<path class="st2" d="M303.1,120.9H291v-9.7h36.5v9.7h-12.1v26.6h-12.3V120.9z"/>
	<path class="st2" d="M69.7,215.3H56.6l-1.2,4.2H41.6l12.1-36.3h18.8l12.1,36.3H70.9L69.7,215.3z M67,205.6l-3.5-12.7h-0.6
		l-3.5,12.7H67z"/>
	<path class="st2" d="M85.7,201.3c0-10.3,8.4-18.7,18.8-18.7c5.2,0,9.8,2.1,13.3,5.5l-8.6,8.5c-1.2-1.2-2.8-1.9-4.7-1.9
		c-3.7,0-6.7,2.9-6.7,6.6c0,3.7,2.9,6.7,6.7,6.7c1.9,0,3.5-0.8,4.7-2l8.6,8.6c-3.4,3.5-8.2,5.6-13.4,5.6
		C94.1,220.1,85.7,211.7,85.7,201.3z"/>
	<path class="st2" d="M131.8,192.9h-12.1v-9.7h36.5v9.7h-12.1v26.6h-12.3V192.9z"/>
	<path class="st2" d="M159.8,183.2h12.3v36.3h-12.3V183.2z"/>
	<path class="st2" d="M174.5,183.2h13.9l7.4,26.6h0.6l7.4-26.6h13.9l-12.1,36.3h-19.1L174.5,183.2z"/>
	<path class="st2" d="M220.2,183.2h12.3v36.3h-12.3V183.2z"/>
	<path class="st2" d="M248.2,192.9h-12.1v-9.7h36.5v9.7h-12.1v26.6h-12.3V192.9z"/>
	<path class="st2" d="M276.2,183.2h12.3v36.3h-12.3V183.2z"/>
	<path class="st2" d="M306.5,192.9v3.5h22.2v9.7h-22.2v3.6h22.2v9.7h-34.5v-36.3h34.5v9.7H306.5z"/>
	<path class="st2" d="M333.9,209.8h20.9c1.6,0,2.2-0.8,2.2-1.9c0-1.1-0.7-1.7-2.3-1.7h-9.4c-6.8,0-12.1-3.5-12.1-11.5
		c0-8.4,6.9-11.5,12.7-11.5h21.7v9.7h-19.8c-1.5,0-2.1,0.8-2.1,1.7s0.6,1.8,2.1,1.8h8c8.6,0,13.6,4.4,13.6,11.2
		c0,6.8-5.2,11.8-13.4,11.8h-22.2V209.8z"/>
	<path class="st2" d="M377.3,192.9h-1.9l-1.1-16.1h3.1L377.3,192.9z M383.3,192.9h-1.9l-1.1-16.1h3.1L383.3,192.9z"/>
</g>
<g>
	<path class="st3" d="M44.8,281.4h9.8v29h-9.8V281.4z"/>
	<path class="st3" d="M58.9,281.4h9.8l13,15.4h0.3v-15.4H92v29h-9.8l-13-15h-0.4v15h-9.8V281.4z"/>
	<path class="st3" d="M96.1,302.7h16.7c1.2,0,1.8-0.7,1.8-1.5c0-0.9-0.6-1.4-1.8-1.4h-7.5c-5.5,0-9.6-2.8-9.6-9.2
		c0-6.7,5.5-9.2,10.2-9.2h17.4v7.8h-15.8c-1.2,0-1.7,0.6-1.7,1.4c0,0.8,0.5,1.4,1.7,1.4h6.4c6.9,0,10.9,3.6,10.9,9
		c0,5.4-4.1,9.5-10.8,9.5H96.1V302.7z"/>
	<path class="st3" d="M158.8,290.5c0,5.4-4.3,9.3-9.2,9.3h-11.6v10.7h-9.8v-29h20.9C153.7,281.4,158.8,284.2,158.8,290.5z
		 M149.2,290.6c0-1-0.7-1.4-1.4-1.4h-9.7v2.9h9.7C148.6,292.1,149.2,291.4,149.2,290.6z"/>
	<path class="st3" d="M161.7,281.4h9.8v29h-9.8V281.4z"/>
	<path class="st3" d="M199.9,299.4l6.4,11.1h-10.4l-5.8-10.7h-4.5v10.7h-9.8v-29h20.9c4.7,0,9.7,2.8,9.7,9.1
		C206.4,294.9,203.6,298.3,199.9,299.4z M185.7,292.1h9.7c0.8,0,1.4-0.7,1.4-1.5c0-1-0.7-1.4-1.4-1.4h-9.7V292.1z"/>
	<path class="st3" d="M229.9,307.1h-10.5l-1,3.4h-11l9.7-29h15.1l9.7,29h-11L229.9,307.1z M227.8,299.3l-2.8-10.1h-0.5l-2.8,10.1
		H227.8z"/>
	<path class="st3" d="M250.3,289.2h-9.7v-7.8h29.2v7.8h-9.7v21.3h-9.8V289.2z"/>
	<path class="st3" d="M272.7,281.4h9.8v29h-9.8V281.4z"/>
	<path class="st3" d="M286.1,295.9c0-8.3,6.7-15,15-15c8.3,0,15,6.7,15,15c0,8.3-6.7,15-15,15C292.8,311,286.1,304.2,286.1,295.9z
		 M306.4,295.9c0-2.9-2.4-5.3-5.3-5.3c-3,0-5.3,2.4-5.3,5.3c0,3,2.4,5.3,5.3,5.3C304.1,301.2,306.4,298.9,306.4,295.9z"/>
	<path class="st3" d="M319.7,281.4h9.8l13,15.4h0.3v-15.4h9.8v29h-9.8l-13-15h-0.4v15h-9.8V281.4z"/>
	<path class="st3" d="M357.3,291.9h20.4v8.9h-20.4V291.9z"/>
	<path class="st3" d="M43.7,352.1h11.2c0.1,4.7,1.9,7.1,5.3,7.1c3.3,0,5-2.4,5-6.9v-17.9h11.2v18.2c0,11.3-7.2,15.9-16.3,15.9
		C49.9,368.6,43.7,362.7,43.7,352.1z"/>
	<path class="st3" d="M80.9,339h9.8v29h-9.8V339z"/>
	<path class="st3" d="M95.1,339h10l7.2,9.2h0.4l7.2-9.2h10v29H120v-16.1h-0.3l-7,7.8h-0.5l-7-7.8h-0.3v16.1h-9.8V339z"/>
	<path class="st3" d="M134.2,339h10l7.2,9.2h0.4l7.2-9.2h10v29h-9.8v-16.1h-0.3l-7,7.8h-0.5l-7-7.8H144v16.1h-9.8V339z"/>
	<path class="st3" d="M184.9,357.4L170.8,339h12l6.7,9.2h0.3l6.5-9.2h12l-13.6,18.4v10.7h-9.8V357.4z"/>
	<path class="st3" d="M246.2,364.7h-12.1l-0.9,3.4h-11.7l9.8-33.6H249l9.8,33.6h-11.7L246.2,364.7z M243.8,355.7l-3.3-12.3h-0.8
		l-3.3,12.3H243.8z"/>
	<path class="st3" d="M285.1,357l6.4,11.1h-10.4l-5.8-10.7h-4.5v10.7H261v-29h20.9c4.7,0,9.7,2.8,9.7,9.1
		C291.6,352.5,288.7,355.9,285.1,357z M270.8,349.7h9.7c0.8,0,1.4-0.7,1.4-1.5c0-1-0.7-1.4-1.4-1.4h-9.7V349.7z"/>
	<path class="st3" d="M293.7,353.5c0-8.3,6.7-15,15-15c4.1,0,7.9,1.7,10.6,4.4l-6.9,6.8c-1-1-2.3-1.5-3.7-1.5c-3,0-5.3,2.4-5.3,5.3
		c0,3,2.4,5.3,5.3,5.3c1.5,0,2.8-0.6,3.8-1.6l6.9,6.9c-2.7,2.8-6.5,4.5-10.7,4.5C300.4,368.6,293.7,361.8,293.7,353.5z"/>
	<path class="st3" d="M342.5,364.7H332l-1,3.4h-11l9.7-29h15.1l9.7,29h-11L342.5,364.7z M340.3,356.9l-2.8-10.1H337l-2.8,10.1H340.3
		z"/>
</g>
</svg>
