<?xml version="1.0" encoding="utf-8"?>
<!-- Generator: Adobe Illustrator 28.2.0, SVG Export Plug-In . SVG Version: 6.00 Build 0)  -->
<svg version="1.1" id="Layer_1" xmlns="http://www.w3.org/2000/svg" xmlns:xlink="http://www.w3.org/1999/xlink" x="0px" y="0px"
	 viewBox="0 0 1366 1002" style="enable-background:new 0 0 1366 1002;" xml:space="preserve">
<style type="text/css">
	.st0{fill:#AAD9FF;}
	.st1{opacity:0.27;fill:#AAD9FF;}
	.st2{fill:#FFFFFF;}
	.st3{fill:#3FA9F5;}
</style>
<g>
	<rect x="-0.2" class="st0" width="1366.2" height="235"/>
</g>
<rect x="0.1" y="257" class="st1" width="1365.9" height="74"/>
<g>
	<path class="st2" d="M170.9,73.6c0-17.3,13.5-30.7,31.5-30.7c17.8,0,29.4,11.4,30.3,25.2h-19c-0.5-3.3-4.9-7.9-11.8-7.9
		c-6.9,0-12.7,4.9-12.7,13s6,13.4,12.4,13.4c4.9,0,8.3-1.7,10.5-5.3h-10.5v-6.3h31.1c-0.2,15.6-12.4,29.2-30.4,29.2
		S170.9,90.9,170.9,73.6z"/>
	<path class="st2" d="M239.7,51.9h17.4v51.4h-17.4V51.9z"/>
	<path class="st2" d="M282.6,65.7v5H314v13.8h-31.5v18.9h-17.4V51.9H314v13.8H282.6z"/>
	<path class="st2" d="M345.1,89.6h29.6c2.2,0,3.1-1.2,3.1-2.6c0-1.6-1-2.5-3.2-2.5h-13.3c-9.7,0-17.1-4.9-17.1-16.2
		c0-11.9,9.8-16.3,18-16.3H393v13.8h-28.1c-2.1,0-3,1.1-3,2.5c0,1.4,0.9,2.6,3,2.6h11.4c12.2,0,19.3,6.3,19.3,15.9
		c0,9.6-7.3,16.7-19,16.7h-31.5V89.6z"/>
	<path class="st2" d="M419.9,65.7v5h31.5v13.8h-31.5v5.1h31.5v13.8h-48.9V51.9h48.9v13.8H419.9z"/>
	<path class="st2" d="M501.6,83.7l11.3,19.6h-18.4l-10.3-19h-7.9v19H459V51.9h37c8.2,0,17.2,4.9,17.2,16.1
		C513.1,75.8,508.1,81.7,501.6,83.7z M476.4,70.8h17.3c1.4,0,2.6-1.2,2.6-2.6c0-1.7-1.2-2.6-2.6-2.6h-17.3V70.8z"/>
	<path class="st2" d="M519,51.9h17.4v51.4H519V51.9z"/>
	<path class="st2" d="M562,65.7v5h31.5v13.8H562v5.1h31.5v13.8h-48.9V51.9h48.9v13.8H562z"/>
	<path class="st2" d="M600.7,89.6h29.6c2.2,0,3.1-1.2,3.1-2.6c0-1.6-1-2.5-3.2-2.5h-13.3c-9.7,0-17.1-4.9-17.1-16.2
		c0-11.9,9.8-16.3,18-16.3h30.8v13.8h-28.1c-2.1,0-3,1.1-3,2.5c0,1.4,0.9,2.6,3,2.6h11.4c12.2,0,19.3,6.3,19.3,15.9
		c0,9.6-7.3,16.7-19,16.7h-31.5V89.6z"/>
	<path class="st2" d="M172.7,144.9h2.6l1.6,22.8h-4.3L172.7,144.9z M181.3,144.9h2.6l1.6,22.8h-4.3L181.3,144.9z"/>
	<path class="st2" d="M194.1,145.8H214l23.6,30.9h0.6v-30.9h19.9v59.5h-19.9l-23.5-29.9H214v29.9h-19.9V145.8z"/>
	<path class="st2" d="M265.7,153.9h17.4v51.4h-17.4V153.9z"/>
	<path class="st2" d="M290,179.7c0-14.6,11.6-26.6,26.7-26.6c13.5,0,24.3,8.7,26.2,21.5l-17.1-0.1c-1.9-3.9-5.4-5.8-9.1-5.8
		c-6,0-10.5,4.2-10.5,10.5c0,5.9,4.2,10.8,10.7,10.8c3.7,0,6.8-2,7.5-4.9l-8.2-0.1v-6l26.9,0.1l-0.2,2.8
		c-1,13.7-12.2,24.5-26.4,24.5C301.6,206.3,290,194.2,290,179.7z"/>
	<path class="st2" d="M408.9,153.9v51.4h-17.4v-18.9h-24.1v18.9H350v-51.4h17.4v18.8h24.1v-18.8H408.9z"/>
	<path class="st2" d="M431.2,167.7H414v-13.8h51.8v13.8h-17.2v37.7h-17.4V167.7z"/>
	<path class="st2" d="M530.4,199.4h-18.5l-1.7,6h-19.6l17.2-51.4h26.7l17.2,51.4h-19.6L530.4,199.4z M526.5,185.6l-5-17.9h-0.9
		l-5,17.9H526.5z"/>
	<path class="st2" d="M553,179.6c0-14.6,11.9-26.5,26.6-26.5c7.3,0,13.9,3,18.8,7.8l-12.2,12c-1.7-1.7-4-2.7-6.6-2.7
		c-5.3,0-9.4,4.2-9.4,9.4c0,5.3,4.2,9.4,9.4,9.4c2.6,0,5-1.1,6.7-2.9l12.2,12.2c-4.8,4.9-11.6,8-19,8
		C564.9,206.2,553,194.3,553,179.6z"/>
	<path class="st2" d="M618.3,167.7h-17.2v-13.8h51.8v13.8h-17.2v37.7h-17.4V167.7z"/>
	<path class="st2" d="M658,153.9h17.4v51.4H658V153.9z"/>
	<path class="st2" d="M678.8,153.9h19.7l10.5,37.7h0.9l10.5-37.7h19.7L723,205.3h-27L678.8,153.9z"/>
	<path class="st2" d="M743.6,153.9H761v51.4h-17.4V153.9z"/>
	<path class="st2" d="M783.3,167.7h-17.2v-13.8h51.8v13.8h-17.2v37.7h-17.4V167.7z"/>
	<path class="st2" d="M823,153.9h17.4v51.4H823V153.9z"/>
	<path class="st2" d="M865.9,167.7v5h31.5v13.8h-31.5v5.1h31.5v13.8h-48.9v-51.4h48.9v13.8H865.9z"/>
	<path class="st2" d="M904.7,191.6h29.6c2.2,0,3.1-1.2,3.1-2.6c0-1.6-1-2.5-3.2-2.5h-13.3c-9.7,0-17.1-4.9-17.1-16.2
		c0-11.9,9.8-16.3,18-16.3h30.8v13.8h-28.1c-2.1,0-3,1.1-3,2.5c0,1.4,0.9,2.6,3,2.6h11.4c12.2,0,19.3,6.3,19.3,15.9
		c0,9.6-7.3,16.7-19,16.7h-31.5V191.6z"/>
	<path class="st2" d="M966.1,167.7h-2.6l-1.6-22.8h4.3L966.1,167.7z M974.6,167.7H972l-1.6-22.8h4.3L974.6,167.7z"/>
</g>
<g>
	<path class="st3" d="M164.4,274h12.3v36.3h-12.3V274z"/>
	<path class="st3" d="M182.1,274h12.3l16.3,19.2h0.4V274h12.3v36.3h-12.3l-16.2-18.7h-0.5v18.7h-12.3V274z"/>
	<path class="st3" d="M228.5,300.6h20.9c1.6,0,2.2-0.8,2.2-1.9c0-1.1-0.7-1.7-2.3-1.7h-9.4c-6.8,0-12.1-3.5-12.1-11.5
		c0-8.4,6.9-11.5,12.7-11.5h21.7v9.7h-19.8c-1.5,0-2.1,0.8-2.1,1.7s0.6,1.8,2.1,1.8h8c8.6,0,13.6,4.4,13.6,11.2
		c0,6.8-5.2,11.8-13.4,11.8h-22.2V300.6z"/>
	<path class="st3" d="M306.9,285.4c0,6.8-5.3,11.6-11.5,11.6H281v13.3h-12.3V274h26.1C300.6,274,306.9,277.5,306.9,285.4z
		 M295,285.5c0-1.2-0.8-1.8-1.8-1.8H281v3.7h12.2C294.1,287.3,295,286.5,295,285.5z"/>
	<path class="st3" d="M310.5,274h12.3v36.3h-12.3V274z"/>
	<path class="st3" d="M358.3,296.5l8,13.9h-13l-7.3-13.4h-5.6v13.4h-12.3V274h26.1c5.8,0,12.1,3.5,12.1,11.3
		C366.4,290.9,362.9,295.1,358.3,296.5z M340.5,287.3h12.2c1,0,1.8-0.8,1.8-1.9c0-1.2-0.8-1.8-1.8-1.8h-12.2V287.3z"/>
	<path class="st3" d="M395.8,306.1h-13.1l-1.2,4.2h-13.8l12.1-36.3h18.8l12.1,36.3H397L395.8,306.1z M393.1,296.4l-3.5-12.7H389
		l-3.5,12.7H393.1z"/>
	<path class="st3" d="M421.3,283.7h-12.1V274h36.5v9.7h-12.1v26.6h-12.3V283.7z"/>
	<path class="st3" d="M449.3,274h12.3v36.3h-12.3V274z"/>
	<path class="st3" d="M466.1,292.1c0-10.3,8.4-18.7,18.8-18.7c10.3,0,18.7,8.4,18.7,18.7c0,10.4-8.4,18.8-18.7,18.8
		C474.5,310.9,466.1,302.5,466.1,292.1z M491.5,292.1c0-3.7-2.9-6.6-6.6-6.6c-3.7,0-6.7,2.9-6.7,6.6c0,3.7,2.9,6.7,6.7,6.7
		C488.5,298.7,491.5,295.8,491.5,292.1z"/>
	<path class="st3" d="M508.1,274h12.3l16.3,19.2h0.4V274h12.3v36.3h-12.3l-16.2-18.7h-0.5v18.7h-12.3V274z"/>
	<path class="st3" d="M555.1,287.2h25.6v11.1h-25.6V287.2z"/>
	<path class="st3" d="M601.8,290.4h14c0.1,5.9,2.4,8.8,6.6,8.8c4.1,0,6.3-3,6.3-8.6v-22.3h14v22.7c0,14.2-9.1,19.9-20.4,19.9
		C609.5,310.9,601.8,303.6,601.8,290.4z"/>
	<path class="st3" d="M648.3,274h12.3v36.3h-12.3V274z"/>
	<path class="st3" d="M666,274h12.5l9,11.5h0.5l9-11.5h12.5v36.3h-12.3v-20.2h-0.4l-8.8,9.8h-0.6l-8.8-9.8h-0.4v20.2H666V274z"/>
	<path class="st3" d="M714.8,274h12.5l9,11.5h0.5l9-11.5h12.5v36.3H746v-20.2h-0.4l-8.8,9.8h-0.6l-8.8-9.8h-0.4v20.2h-12.3V274z"/>
	<path class="st3" d="M778.3,297l-17.6-23h15l8.4,11.5h0.4l8.2-11.5h14.9l-17,23v13.3h-12.3V297z"/>
	<path class="st3" d="M854.9,306h-15.1l-1.1,4.3h-14.6l12.2-42h22.1l12.2,42h-14.6L854.9,306z M851.9,294.8l-4.1-15.4h-1l-4.1,15.4
		H851.9z"/>
	<path class="st3" d="M903.5,296.5l8,13.9h-13l-7.3-13.4h-5.6v13.4h-12.3V274h26.1c5.8,0,12.1,3.5,12.1,11.3
		C911.6,290.9,908,295.1,903.5,296.5z M885.7,287.3h12.2c1,0,1.8-0.8,1.8-1.9c0-1.2-0.8-1.8-1.8-1.8h-12.2V287.3z"/>
	<path class="st3" d="M914.3,292.1c0-10.3,8.4-18.7,18.8-18.7c5.2,0,9.8,2.1,13.3,5.5l-8.6,8.5c-1.2-1.2-2.8-1.9-4.7-1.9
		c-3.7,0-6.7,2.9-6.7,6.6c0,3.7,2.9,6.7,6.7,6.7c1.9,0,3.5-0.8,4.7-2l8.6,8.6c-3.4,3.5-8.2,5.6-13.4,5.6
		C922.7,310.9,914.3,302.5,914.3,292.1z"/>
	<path class="st3" d="M975.2,306.1h-13.1l-1.2,4.2h-13.8l12.1-36.3h18.8l12.1,36.3h-13.8L975.2,306.1z M972.5,296.4l-3.5-12.7h-0.6
		l-3.5,12.7H972.5z"/>
</g>
</svg>
