<?xml version="1.0" encoding="utf-8"?>
<!-- Generator: Adobe Illustrator 28.2.0, SVG Export Plug-In . SVG Version: 6.00 Build 0)  -->
<svg version="1.1" id="Layer_1" xmlns="http://www.w3.org/2000/svg" xmlns:xlink="http://www.w3.org/1999/xlink" x="0px" y="0px"
	 viewBox="0 0 425 498" style="enable-background:new 0 0 425 498;" xml:space="preserve">
<style type="text/css">
	.st0{opacity:0.62;fill:#AAD9FF;}
	.st1{fill:#AAD9FF;}
	.st2{fill:#FFFFFF;}
	.st3{fill:#3FA9F5;}
	.st4{opacity:0.27;fill:#AAD9FF;}
</style>
<rect x="-0.5" y="336.9" class="st0" width="236.3" height="67.1"/>
<rect x="0.5" y="185.9" class="st0" width="181.8" height="76"/>
<g>
	<rect x="1.1" class="st1" width="423" height="138.7"/>
</g>
<g>
	<path class="st2" d="M106.7,71h16.1l10.7,15.3h0.5L144.8,71h16.1v48.1H145V93.9h-0.4l-10.5,14h-0.5l-10.5-14h-0.4v25.2h-15.9V71z"
		/>
	<path class="st2" d="M166.1,95c0-13.7,11-24.7,24.6-24.7s24.6,11.1,24.6,24.7c0,13.7-11,24.8-24.6,24.8S166.1,108.7,166.1,95z
		 M199.4,95c0-4.9-3.9-8.9-8.8-8.9c-4.8,0-8.8,4-8.8,8.9c0,4.9,3.9,8.9,8.8,8.9C195.5,103.9,199.4,99.9,199.4,95z"/>
	<path class="st2" d="M243.8,101.3h-7.5v17.8h-15.9V71h33.7c9.7,0,15.5,5.6,15.5,15.3c0,6.4-4.2,11.5-9.9,13.8l11.4,19h-17.3
		L243.8,101.3z M236.3,88.7h14.8c1.5,0,2.6-1,2.6-2.6c0-1.7-1.1-2.5-2.6-2.5h-14.8V88.7z"/>
	<path class="st2" d="M292.2,83.6v5h26.2v12.7h-26.2v5.1h26.2v12.6h-42.1V71h42.1v12.6H292.2z"/>
</g>
<g>
	<path class="st3" d="M52.6,224.4c0-13.1,10.2-23.2,23.9-23.2c13.4,0,22.3,8.6,23,19.1H85c-0.4-2.5-3.7-6-8.9-6s-9.6,3.7-9.6,9.8
		c0,6.1,4.6,10.2,9.4,10.2c3.7,0,6.3-1.3,8-4h-7.9v-4.8h23.6c-0.1,11.8-9.4,22.1-23,22.1S52.6,237.6,52.6,224.4z"/>
	<path class="st3" d="M104.6,208h13.2V247h-13.2V208z"/>
	<path class="st3" d="M137.1,218.5v3.8H161v10.4h-23.8V247h-13.2V208h37v10.4H137.1z"/>
</g>
<g>
	<path class="st3" d="M54.1,282.6h6.4v27.2h-6.4V282.6z"/>
	<path class="st3" d="M63.1,286.3h5.6l7.5,12.4h0.2v-12.4h5.6v23.5h-5.6L69,297.7h-0.2v12.1h-5.6V286.3z"/>
	<path class="st3" d="M89.3,292.6h-5.6v-6.3h16.8v6.3h-5.6v17.2h-5.6V292.6z"/>
	<path class="st3" d="M108,292.6v2.3h10.2v6.3H108v2.3h10.2v6.3h-15.8v-23.5h15.8v6.3H108z"/>
	<path class="st3" d="M134.5,300.8l3.7,9h-6l-3.3-8.7h-2.6v8.7h-5.6v-23.5h12c2.7,0,5.6,2.3,5.6,7.3
		C138.2,297.2,136.5,299.9,134.5,300.8z M126.3,294.9h5.6c0.4,0,0.8-0.5,0.8-1.2c0-0.8-0.4-1.2-0.8-1.2h-5.6V294.9z"/>
	<path class="st3" d="M151.7,307.1h-6l-0.6,2.7h-6.3l5.6-23.5h8.6l5.6,23.5h-6.3L151.7,307.1z M150.4,300.8l-1.6-8.2h-0.3l-1.6,8.2
		H150.4z"/>
	<path class="st3" d="M159,298c0-6.7,3.9-12.1,8.6-12.1c2.4,0,4.5,1.4,6.1,3.6l-3.9,5.5c-0.6-0.8-1.3-1.2-2.1-1.2
		c-1.7,0-3.1,1.9-3.1,4.3c0,2.4,1.3,4.3,3.1,4.3c0.9,0,1.6-0.5,2.2-1.3l4,5.6c-1.6,2.3-3.7,3.7-6.1,3.7
		C162.9,310.2,159,304.8,159,298z"/>
	<path class="st3" d="M180.2,292.6h-5.6v-6.3h16.8v6.3h-5.6v17.2h-5.6V292.6z"/>
	<path class="st3" d="M193,286.3h5.6v23.5H193V286.3z"/>
	<path class="st3" d="M199.8,286.3h6.4l3.4,17.2h0.3l3.4-17.2h6.4l-5.6,23.5h-8.8L199.8,286.3z"/>
	<path class="st3" d="M226.6,292.6v2.3h10.2v6.3h-10.2v2.3h10.2v6.3h-15.8v-23.5h15.8v6.3H226.6z"/>
	<path class="st3" d="M258.5,307.1h-6l-0.6,2.7h-6.3l5.6-23.5h8.6l5.6,23.5h-6.3L258.5,307.1z M257.3,300.8l-1.6-8.2h-0.3l-1.6,8.2
		H257.3z"/>
	<path class="st3" d="M280.4,300.8l3.7,9h-5.9l-3.3-8.7h-2.6v8.7h-5.6v-23.5h12c2.7,0,5.6,2.3,5.6,7.3
		C284.1,297.2,282.5,299.9,280.4,300.8z M272.2,294.9h5.6c0.4,0,0.8-0.5,0.8-1.2c0-0.8-0.4-1.2-0.8-1.2h-5.6V294.9z"/>
	<path class="st3" d="M290.8,292.6h-5.6v-6.3H302v6.3h-5.6v17.2h-5.6V292.6z"/>
	<path class="st3" d="M310.2,286.3h6.2l2,13.5h0.2l3.8-7.2h0.3l3.8,7.2h0.2l2-13.5h6.2l-3.5,23.5h-5.5l-3.1-6.3h-0.2l-3.1,6.3h-5.5
		L310.2,286.3z"/>
	<path class="st3" d="M335,298c0-6.7,3.9-12.1,8.6-12.1c4.7,0,8.6,5.4,8.6,12.1c0,6.7-3.9,12.2-8.6,12.2
		C338.9,310.2,335,304.8,335,298z M346.7,298c0-2.4-1.3-4.3-3-4.3c-1.7,0-3.1,1.9-3.1,4.3c0,2.4,1.3,4.3,3.1,4.3
		C345.3,302.3,346.7,300.4,346.7,298z"/>
	<path class="st3" d="M368.1,300.8l3.7,9h-5.9l-3.3-8.7H360v8.7h-5.6v-23.5h12c2.7,0,5.6,2.3,5.6,7.3
		C371.9,297.2,370.2,299.9,368.1,300.8z M360,294.9h5.6c0.4,0,0.8-0.5,0.8-1.2c0-0.8-0.4-1.2-0.8-1.2H360V294.9z"/>
	<path class="st3" d="M380.4,301.7l-0.9,1.5v6.6h-5.6v-23.5h5.6v7.3h0.2l4.6-7.3h6.1L384,296l6.7,13.8h-6.2l-3.9-8.1H380.4z"/>
</g>
<rect x="37.6" y="269.8" class="st4" width="386.6" height="59"/>
<g>
	<path class="st3" d="M47.6,371.3c0-10,7.8-17.9,18.1-17.9c10.2,0,16.9,6.6,17.4,14.7H72.2c-0.3-1.9-2.8-4.6-6.8-4.6
		s-7.3,2.9-7.3,7.6s3.5,7.8,7.1,7.8c2.8,0,4.8-1,6.1-3.1h-6v-3.7h17.9c-0.1,9.1-7.1,17-17.5,17S47.6,381.4,47.6,371.3z"/>
	<path class="st3" d="M113.2,380.6v8H87.1v-29.9h10v21.9H113.2z"/>
	<path class="st3" d="M116.1,358.7h10v29.9h-10V358.7z"/>
	<path class="st3" d="M138.9,366.7h-9.9v-8h29.7v8h-9.9v21.9h-10V366.7z"/>
	<path class="st3" d="M159.8,373.6c0-8.5,6.8-15.4,15.3-15.4c4.2,0,8,1.7,10.8,4.5l-7,7c-1-1-2.3-1.6-3.8-1.6c-3,0-5.4,2.4-5.4,5.4
		c0,3.1,2.4,5.5,5.4,5.5c1.5,0,2.9-0.6,3.9-1.7l7,7.1c-2.8,2.9-6.6,4.6-10.9,4.6C166.6,389.1,159.8,382.2,159.8,373.6z"/>
	<path class="st3" d="M222.7,358.7v29.9h-10v-11h-13.8v11h-10v-29.9h10v10.9h13.8v-10.9H222.7z"/>
</g>
</svg>
