<?xml version="1.0" encoding="utf-8"?>
<!-- Generator: Adobe Illustrator 28.2.0, SVG Export Plug-In . SVG Version: 6.00 Build 0)  -->
<svg version="1.1" id="Layer_1" xmlns="http://www.w3.org/2000/svg" xmlns:xlink="http://www.w3.org/1999/xlink" x="0px" y="0px"
	 viewBox="0 0 768 850" style="enable-background:new 0 0 768 850;" xml:space="preserve">
<style type="text/css">
	.st0{opacity:0.62;fill:#AAD9FF;}
	.st1{fill:#AAD9FF;}
	.st2{fill:#FFFFFF;}
	.st3{fill:#3FA9F5;}
	.st4{opacity:0.27;fill:#AAD9FF;}
</style>
<rect y="569.6" class="st0" width="508" height="121.4"/>
<rect y="296.4" class="st0" width="333.4" height="137.5"/>
<g>
	<rect y="-2" class="st1" width="768" height="246.7"/>
</g>
<g>
	<path class="st2" d="M193.6,122.2h29.2l19.4,27.6h1l19.3-27.6h29.2v87.1h-28.8v-45.5h-0.7l-19,25.2h-1l-19-25.2h-0.7v45.5h-28.8
		V122.2z"/>
	<path class="st2" d="M301,165.6c0-24.7,20-44.8,44.5-44.8c24.5,0,44.5,20,44.5,44.8c0,24.9-20,44.9-44.5,44.9
		C320.9,210.5,301,190.5,301,165.6z M361.4,165.6c0-8.8-7.1-16-15.9-16c-8.8,0-15.9,7.2-15.9,16c0,9,7.1,16.2,15.9,16.2
		C354.2,181.8,361.4,174.6,361.4,165.6z"/>
	<path class="st2" d="M441.6,177h-13.6v32.2h-28.8v-87.1h61c17.5,0,28.1,10.2,28.1,27.6c0,11.6-7.6,20.9-17.9,25l20.7,34.4h-31.3
		L441.6,177z M428.1,154.3h26.7c2.7,0,4.7-1.9,4.7-4.7c0-3.1-2-4.5-4.7-4.5h-26.7V154.3z"/>
	<path class="st2" d="M529.3,145.1v9.1h47.3v23h-47.3v9.2h47.3v22.9h-76.2v-87.1h76.2v22.9H529.3z"/>
</g>
<g>
	<path class="st3" d="M98.7,366.1c0-23.6,18.5-42,43.2-42c24.3,0,40.3,15.6,41.6,34.6h-26.1c-0.7-4.5-6.8-10.8-16.2-10.8
		c-9.4,0-17.3,6.8-17.3,17.8c0,11.1,8.3,18.4,17,18.4c6.8,0,11.4-2.3,14.4-7.2h-14.3v-8.6h42.6c-0.2,21.4-17,39.9-41.7,39.9
		S98.7,389.9,98.7,366.1z"/>
	<path class="st3" d="M192.9,336.4h23.9v70.4h-23.9V336.4z"/>
	<path class="st3" d="M251.7,355.3v6.9h43.1V381h-43.1v25.8h-23.9v-70.4h67v18.9H251.7z"/>
</g>
<g>
	<path class="st3" d="M101.4,471.3H113v49.2h-11.7V471.3z"/>
	<path class="st3" d="M117.8,478H128l13.5,22.5h0.3V478H152v42.5h-10.2l-13.5-21.9H128v21.9h-10.2V478z"/>
	<path class="st3" d="M165.1,489.4H155V478h30.4v11.4h-10.1v31.1h-10.2V489.4z"/>
	<path class="st3" d="M198.8,489.4v4.1h18.4V505h-18.4v4.2h18.4v11.4h-28.7V478h28.7v11.4H198.8z"/>
	<path class="st3" d="M246.8,504.3l6.6,16.2h-10.8l-6-15.7H232v15.7h-10.2V478h21.7c4.8,0,10.1,4.1,10.1,13.3
		C253.5,497.8,250.6,502.7,246.8,504.3z M232,493.6h10.1c0.8,0,1.5-1,1.5-2.2c0-1.4-0.7-2.1-1.5-2.1H232V493.6z"/>
	<path class="st3" d="M278,515.6h-10.9l-1,4.9h-11.5l10.1-42.5h15.7l10.1,42.5h-11.5L278,515.6z M275.7,504.2l-2.9-14.8h-0.5
		l-2.9,14.8H275.7z"/>
	<path class="st3" d="M291.3,499.3c0-12.1,7-21.9,15.6-21.9c4.3,0,8.2,2.5,11,6.5l-7.1,9.9c-1-1.4-2.3-2.2-3.9-2.2
		c-3.1,0-5.5,3.4-5.5,7.7c0,4.4,2.4,7.8,5.5,7.8c1.5,0,2.9-0.9,3.9-2.4l7.2,10.1c-2.8,4.1-6.8,6.6-11.1,6.6
		C298.2,521.3,291.3,511.4,291.3,499.3z"/>
	<path class="st3" d="M329.5,489.4h-10.1V478h30.4v11.4h-10.1v31.1h-10.2V489.4z"/>
	<path class="st3" d="M352.8,478H363v42.5h-10.2V478z"/>
	<path class="st3" d="M365,478h11.6l6.2,31.1h0.5l6.2-31.1H401l-10.1,42.5h-15.8L365,478z"/>
	<path class="st3" d="M413.5,489.4v4.1h18.4V505h-18.4v4.2h18.4v11.4h-28.7V478h28.7v11.4H413.5z"/>
	<path class="st3" d="M471.3,515.6h-10.9l-1,4.9H448L458,478h15.7l10.1,42.5h-11.5L471.3,515.6z M469.1,504.2l-2.9-14.8h-0.5
		l-2.9,14.8H469.1z"/>
	<path class="st3" d="M510.9,504.3l6.6,16.2h-10.8l-6-15.7h-4.6v15.7h-10.2V478h21.7c4.8,0,10.1,4.1,10.1,13.3
		C517.6,497.8,514.7,502.7,510.9,504.3z M496.1,493.6h10.1c0.8,0,1.5-1,1.5-2.2c0-1.4-0.7-2.1-1.5-2.1h-10.1V493.6z"/>
	<path class="st3" d="M529.7,489.4h-10.1V478h30.4v11.4h-10.1v31.1h-10.2V489.4z"/>
	<path class="st3" d="M564.8,478h11.2l3.5,24.4h0.4l6.8-13h0.5l6.8,13h0.4l3.5-24.4h11.2l-6.3,42.5h-10l-5.7-11.4h-0.3l-5.7,11.4
		h-10L564.8,478z"/>
	<path class="st3" d="M609.7,499.3c0-12.1,7-21.9,15.6-21.9c8.6,0,15.6,9.8,15.6,21.9c0,12.2-7,22-15.6,22
		C616.7,521.3,609.7,511.4,609.7,499.3z M630.8,499.2c0-4.3-2.4-7.7-5.5-7.7c-3.1,0-5.5,3.4-5.5,7.7c0,4.4,2.4,7.8,5.5,7.8
		C628.4,507,630.8,503.5,630.8,499.2z"/>
	<path class="st3" d="M669.6,504.3l6.6,16.2h-10.8l-6-15.7h-4.6v15.7h-10.2V478h21.7c4.8,0,10.1,4.1,10.1,13.3
		C676.4,497.8,673.4,502.7,669.6,504.3z M654.8,493.6h10.1c0.8,0,1.5-1,1.5-2.2c0-1.4-0.7-2.1-1.5-2.1h-10.1V493.6z"/>
	<path class="st3" d="M691.8,505.9l-1.7,2.7v12h-10.2V478h10.2v13.2h0.3l8.3-13.2h11l-11.4,17.6l12.1,24.9h-11.2l-7.1-14.7H691.8z"
		/>
</g>
<rect x="71.5" y="448.3" class="st4" width="699.5" height="106.8"/>
<g>
	<path class="st3" d="M102,624.2c0-21,16.5-37.4,38.4-37.4c21.7,0,35.9,13.9,37,30.8h-23.2c-0.6-4-6-9.6-14.4-9.6s-15.4,6-15.4,15.9
		s7.4,16.4,15.1,16.4c6,0,10.2-2.1,12.9-6.4h-12.7V626h37.9c-0.2,19.1-15.1,35.5-37.1,35.5C118.5,661.6,102,645.3,102,624.2z"/>
	<path class="st3" d="M241.3,643.7v16.8h-55.4v-62.7h21.2v45.9H241.3z"/>
	<path class="st3" d="M247.5,597.8h21.2v62.7h-21.2V597.8z"/>
	<path class="st3" d="M295.9,614.5H275v-16.8h63.1v16.8h-20.9v45.9h-21.2V614.5z"/>
	<path class="st3" d="M340.2,629.1c0-17.8,14.5-32.3,32.4-32.3c8.9,0,17,3.6,22.9,9.5l-14.8,14.6c-2.1-2.1-4.9-3.3-8.1-3.3
		c-6.4,0-11.5,5.1-11.5,11.4c0,6.4,5.1,11.5,11.5,11.5c3.2,0,6.1-1.3,8.2-3.5l14.9,14.8c-5.9,6-14.1,9.7-23.1,9.7
		C354.7,661.5,340.2,647,340.2,629.1z"/>
	<path class="st3" d="M473.8,597.8v62.7h-21.2v-23h-29.3v23h-21.2v-62.7h21.2v22.9h29.3v-22.9H473.8z"/>
</g>
</svg>
