<?xml version="1.0" encoding="utf-8"?>
<!-- Generator: Adobe Illustrator 28.2.0, SVG Export Plug-In . SVG Version: 6.00 Build 0)  -->
<svg version="1.1" id="Layer_1" xmlns="http://www.w3.org/2000/svg" xmlns:xlink="http://www.w3.org/1999/xlink" x="0px" y="0px"
	 viewBox="0 0 1366 1172" style="enable-background:new 0 0 1366 1172;" xml:space="preserve">
<style type="text/css">
	.st0{opacity:0.62;fill:#AAD9FF;}
	.st1{fill:#AAD9FF;}
	.st2{fill:#FFFFFF;}
	.st3{fill:#3FA9F5;}
	.st4{opacity:0.27;fill:#AAD9FF;}
</style>
<rect y="862" class="st0" width="777" height="203"/>
<rect y="405" class="st0" width="550" height="230"/>
<g>
	<rect class="st1" width="1366" height="315"/>
</g>
<g>
	<path class="st2" d="M340.9,96.4h52.1l34.5,49.3h1.8l34.5-49.3H516v155.4h-51.5v-81.2h-1.3l-33.9,45.1h-1.8l-33.9-45.1h-1.3v81.2
		h-51.5V96.4z"/>
	<path class="st2" d="M532.6,173.9c0-44.2,35.6-79.9,79.4-79.9c43.8,0,79.4,35.7,79.4,79.9c0,44.4-35.6,80.1-79.4,80.1
		C568.2,254,532.6,218.3,532.6,173.9z M640.3,173.9c0-15.8-12.8-28.6-28.4-28.6c-15.6,0-28.4,12.9-28.4,28.6
		c0,16,12.8,28.8,28.4,28.8C627.6,202.7,640.3,189.9,640.3,173.9z"/>
	<path class="st2" d="M783.6,194.3h-24.2v57.5h-51.5V96.4h108.9c31.2,0,50.1,18.2,50.1,49.3c0,20.6-13.6,37.3-31.9,44.6l36.9,61.5
		h-55.9L783.6,194.3z M759.4,153.7h47.7c4.8,0,8.4-3.3,8.4-8.4c0-5.5-3.5-8-8.4-8h-47.7V153.7z"/>
	<path class="st2" d="M940,137.3v16.2h84.5v41.1H940v16.4h84.5v40.8H888.5V96.4h135.9v40.8H940z"/>
</g>
<g>
	<path class="st3" d="M157.5,521.6c0-39.5,31-70.3,72.2-70.3c40.7,0,67.4,26.1,69.5,57.8h-43.6c-1.2-7.6-11.3-18.1-27.1-18.1
		s-29,11.3-29,29.8c0,18.5,13.8,30.8,28.4,30.8c11.3,0,19.1-3.9,24.1-12.1h-24v-14.4h71.3c-0.4,35.8-28.4,66.8-69.7,66.8
		S157.5,561.4,157.5,521.6z"/>
	<path class="st3" d="M315,472H355v117.8H315V472z"/>
	<path class="st3" d="M413.4,503.5V515h72.1v31.5h-72.1v43.2h-39.9V472h112v31.5H413.4z"/>
</g>
<g>
	<path class="st3" d="M162,697.6h19.5V780H162V697.6z"/>
	<path class="st3" d="M189.4,708.8h17.1l22.6,37.6h0.6v-37.6h17.1V780h-17.1l-22.5-36.7h-0.7V780h-17.1V708.8z"/>
	<path class="st3" d="M268.6,727.9h-16.8v-19h50.8v19h-16.8V780h-17.1V727.9z"/>
	<path class="st3" d="M325.1,727.9v6.9h30.8v19h-30.8v7.1h30.8v19H308v-71.1h47.9v19H325.1z"/>
	<path class="st3" d="M405.2,752.8l11.1,27.2h-18l-10.1-26.2h-7.8V780h-17.1v-71.1h36.3c8.1,0,16.8,6.8,16.8,22.2
		C416.5,741.9,411.6,750.1,405.2,752.8z M380.5,734.9h16.9c1.3,0,2.5-1.6,2.5-3.6c0-2.4-1.2-3.5-2.5-3.5h-16.9V734.9z"/>
	<path class="st3" d="M457.3,771.7h-18.2l-1.7,8.2h-19.2l16.8-71.1h26.2l16.8,71.1H459L457.3,771.7z M453.6,752.7l-4.9-24.8h-0.8
		l-4.9,24.8H453.6z"/>
	<path class="st3" d="M479.6,744.3c0-20.2,11.7-36.7,26.1-36.7c7.2,0,13.7,4.1,18.4,10.8L512.2,735c-1.7-2.4-3.9-3.8-6.5-3.8
		c-5.2,0-9.3,5.8-9.3,12.9c0,7.3,4.1,13.1,9.3,13.1c2.6,0,4.9-1.5,6.6-4l12,16.8c-4.8,6.8-11.3,11.1-18.6,11.1
		C491.3,781.1,479.6,764.7,479.6,744.3z"/>
	<path class="st3" d="M543.6,727.9h-16.8v-19h50.8v19h-16.8V780h-17.1V727.9z"/>
	<path class="st3" d="M582.6,708.8h17.1V780h-17.1V708.8z"/>
	<path class="st3" d="M603,708.8h19.3l10.3,52.1h0.8l10.3-52.1h19.3L646.3,780h-26.5L603,708.8z"/>
	<path class="st3" d="M684,727.9v6.9h30.8v19H684v7.1h30.8v19h-47.9v-71.1h47.9v19H684z"/>
	<path class="st3" d="M780.7,771.7h-18.2l-1.7,8.2h-19.2l16.8-71.1h26.2l16.8,71.1h-19.2L780.7,771.7z M776.9,752.7l-4.9-24.8h-0.8
		l-4.9,24.8H776.9z"/>
	<path class="st3" d="M846.9,752.8L858,780h-18l-10.1-26.2h-7.8V780H805v-71.1h36.3c8.1,0,16.8,6.8,16.8,22.2
		C858.1,741.9,853.2,750.1,846.9,752.8z M822.1,734.9h16.9c1.3,0,2.5-1.6,2.5-3.6c0-2.4-1.2-3.5-2.5-3.5h-16.9V734.9z"/>
	<path class="st3" d="M878.3,727.9h-16.8v-19h50.8v19h-16.8V780h-17.1V727.9z"/>
	<path class="st3" d="M937,708.8h18.7l5.9,40.8h0.7l11.4-21.8h0.8l11.4,21.8h0.7l5.9-40.8h18.7l-10.6,71.1h-16.8l-9.5-19h-0.5
		l-9.5,19h-16.8L937,708.8z"/>
	<path class="st3" d="M1012.2,744.3c0-20.2,11.7-36.7,26.1-36.7c14.3,0,26,16.5,26,36.7c0,20.3-11.7,36.8-26,36.8
		C1023.9,781.1,1012.2,764.7,1012.2,744.3z M1047.5,744.2c0-7.2-4.1-12.9-9.2-12.9c-5.2,0-9.3,5.8-9.3,12.9c0,7.3,4.1,13.1,9.3,13.1
		C1043.4,757.3,1047.5,751.5,1047.5,744.2z"/>
	<path class="st3" d="M1112.4,752.8l11.1,27.2h-18l-10.1-26.2h-7.8V780h-17.1v-71.1h36.3c8.1,0,16.8,6.8,16.8,22.2
		C1123.6,741.9,1118.7,750.1,1112.4,752.8z M1087.6,734.9h16.9c1.3,0,2.5-1.6,2.5-3.6c0-2.4-1.2-3.5-2.5-3.5h-16.9V734.9z"/>
	<path class="st3" d="M1149.4,755.4l-2.8,4.5V780h-17.1v-71.1h17.1v22.1h0.6l13.9-22.1h18.3l-19,29.5l20.3,41.6h-18.8l-11.8-24.6
		H1149.4z"/>
</g>
<rect x="112.1" y="659" class="st4" width="1253.9" height="178.6"/>
<g>
	<path class="st3" d="M162.8,964.8c0-30.4,23.8-54.1,55.6-54.1c31.3,0,51.9,20.1,53.5,44.5h-33.6c-0.9-5.8-8.7-13.9-20.8-13.9
		s-22.3,8.7-22.3,22.9c0,14.2,10.6,23.7,21.9,23.7c8.7,0,14.7-3,18.6-9.3h-18.4v-11.1h54.9c-0.3,27.6-21.9,51.4-53.7,51.4
		S162.8,995.4,162.8,964.8z"/>
	<path class="st3" d="M364.4,993v24.3h-80.2v-90.7h30.7V993H364.4z"/>
	<path class="st3" d="M373.4,926.5h30.7v90.7h-30.7V926.5z"/>
	<path class="st3" d="M443.5,950.8h-30.3v-24.3h91.3v24.3h-30.3v66.4h-30.7V950.8z"/>
	<path class="st3" d="M507.5,971.8c0-25.8,21-46.8,46.9-46.8c12.9,0,24.6,5.2,33.1,13.8L566.2,960c-3-3-7-4.8-11.7-4.8
		c-9.3,0-16.6,7.3-16.6,16.5c0,9.3,7.3,16.6,16.6,16.6c4.6,0,8.8-1.9,11.8-5.1l21.6,21.4c-8.5,8.7-20.4,14.1-33.4,14.1
		C528.5,1018.8,507.5,997.8,507.5,971.8z"/>
	<path class="st3" d="M700.9,926.5v90.7h-30.7V984h-42.4v33.3h-30.7v-90.7h30.7v33.1h42.4v-33.1H700.9z"/>
</g>
</svg>
