<?xml version="1.0" encoding="utf-8"?>
<!-- Generator: Adobe Illustrator 28.2.0, SVG Export Plug-In . SVG Version: 6.00 Build 0)  -->
<svg version="1.1" id="Layer_1" xmlns="http://www.w3.org/2000/svg" xmlns:xlink="http://www.w3.org/1999/xlink" x="0px" y="0px"
	 viewBox="0 0 768 452" style="enable-background:new 0 0 768 452;" xml:space="preserve">
<style type="text/css">
	.st0{fill:#AAD9FF;}
	.st1{opacity:0.27;fill:#AAD9FF;enable-background:new    ;}
	.st2{opacity:0.62;fill:#AAD9FF;enable-background:new    ;}
	.st3{fill:#FFFFFF;}
</style>
<g>
	<rect x="1.3" y="0.4" class="st0" width="766.2" height="131.8"/>
</g>
<rect x="1.4" y="144.5" class="st1" width="766" height="41.5"/>
<rect x="1" y="242.9" class="st2" width="229.4" height="117.8"/>
<g>
	<path class="st3" d="M57.9,292.3H46.8V282h34.6v10.3H70.3v28.6H57.9V292.3z"/>
	<path class="st3" d="M96.1,296.3v3.3h19.7v9H96.1v3.3h19.7v9H85.2v-33.6h30.6v9H96.1z"/>
	<path class="st3" d="M143.9,304l11.8,16.8H143l-5.2-7.1h-0.7l-5,7.1h-13.6l12.3-16.8l-12.3-16.8h13.6l5,7.1h0.7l5.2-7.1h12.7
		L143.9,304z"/>
	<path class="st3" d="M167.5,296.3h-10.8v-9h32.5v9h-10.8v24.6h-10.9V296.3z"/>
</g>
<rect x="268.5" y="242.9" class="st2" width="229.4" height="117.8"/>
<g>
	<path class="st3" d="M344.1,311.9v9h-28.5v-33.6h10.9v24.6H344.1z"/>
	<path class="st3" d="M347.3,287.3h10.9v33.6h-10.9V287.3z"/>
	<path class="st3" d="M363.1,287.3H374l14.4,17.8h0.4v-17.8h10.9v33.6h-10.9l-14.4-17.3H374v17.3h-10.9V287.3z"/>
	<path class="st3" d="M415.7,296.3v3.3h19.7v9h-19.7v3.3h19.7v9h-30.6v-33.6h30.6v9H415.7z"/>
	<path class="st3" d="M440,311.9h18.5c1.4,0,2-0.8,2-1.7c0-1.1-0.6-1.6-2-1.6h-8.4c-6.1,0-10.7-3.2-10.7-10.6
		c0-7.8,6.1-10.7,11.3-10.7H470v9h-17.6c-1.3,0-1.9,0.7-1.9,1.6c0,0.9,0.5,1.7,1.9,1.7h7.1c7.7,0,12.1,4.1,12.1,10.4
		s-4.6,10.9-11.9,10.9H440V311.9z"/>
</g>
<rect x="537.7" y="242.9" class="st2" width="229.4" height="117.8"/>
<g>
	<path class="st3" d="M630.2,284.4H620l-0.8,3h-9.8l8.2-29.4h14.8l8.2,29.4h-9.8L630.2,284.4z M628.1,276.5l-2.7-10.8h-0.6
		l-2.7,10.8H628.1z"/>
	<path class="st3" d="M662.8,277.6l5.4,9.7h-8.7l-4.9-9.4h-3.8v9.4h-8.3v-25.4h17.5c3.9,0,8.1,2.4,8.1,7.9
		C668.2,273.7,665.9,276.7,662.8,277.6z M650.8,271.2h8.2c0.6,0,1.2-0.6,1.2-1.3c0-0.8-0.6-1.3-1.2-1.3h-8.2V271.2z"/>
	<path class="st3" d="M678,268.7h-8.1v-6.8h24.6v6.8h-8.1v18.6H678V268.7z"/>
	<path class="st3" d="M598.2,312.4h9l2.9,14.6h0.3l5.5-7.8h0.4l5.5,7.8h0.3l2.9-14.6h9l-5.1,25.4h-8.1l-4.6-6.8H616l-4.6,6.8h-8.1
		L598.2,312.4z"/>
	<path class="st3" d="M634.6,325.1c0-7.2,5.6-13.1,12.6-13.1c6.9,0,12.6,5.9,12.6,13.1c0,7.3-5.6,13.2-12.6,13.2
		C640.2,338.2,634.6,332.3,634.6,325.1z M651.7,325c0-2.6-2-4.6-4.4-4.6c-2.5,0-4.5,2.1-4.5,4.6c0,2.6,2,4.7,4.5,4.7
		C649.7,329.7,651.7,327.6,651.7,325z"/>
	<path class="st3" d="M683.1,328.1l5.4,9.7h-8.7l-4.9-9.4h-3.8v9.4h-8.3v-25.4h17.5c3.9,0,8.1,2.4,8.1,7.9
		C688.5,324.2,686.1,327.1,683.1,328.1z M671.1,321.7h8.2c0.6,0,1.2-0.6,1.2-1.3c0-0.8-0.6-1.3-1.2-1.3h-8.2V321.7z"/>
	<path class="st3" d="M701,329l-1.4,1.6v7.2h-8.3v-25.4h8.3v7.9h0.3l6.7-7.9h8.9l-9.2,10.6l9.8,14.9H707l-5.7-8.8H701z"/>
</g>
<g>
	<path class="st3" d="M137.8,68.5c0-11.4,8.9-20.2,20.8-20.2c11.7,0,19.4,7.5,20,16.7H166c-0.3-2.2-3.3-5.2-7.8-5.2
		c-4.5,0-8.4,3.3-8.4,8.6c0,5.3,4,8.9,8.2,8.9c3.3,0,5.5-1.1,7-3.5h-6.9v-4.2h20.5c-0.1,10.3-8.2,19.2-20.1,19.2
		S137.8,79.9,137.8,68.5z"/>
	<path class="st3" d="M194.9,63.3v3.3h20.8v9.1h-20.8V79h20.8v9.1h-32.2V54.2h32.2v9.1H194.9z"/>
	<path class="st3" d="M220.7,54.2h11.5l15.2,17.9h0.4V54.2h11.5v33.9h-11.5l-15.1-17.5h-0.4v17.5h-11.5V54.2z"/>
	<path class="st3" d="M276.1,63.3v3.3h20.8v9.1h-20.8V79h20.8v9.1h-32.2V54.2h32.2v9.1H276.1z"/>
	<path class="st3" d="M330.1,75.1l7.5,13h-12.1l-6.8-12.5h-5.2v12.5h-11.5V54.2h24.4c5.4,0,11.3,3.3,11.3,10.6
		C337.7,69.9,334.3,73.9,330.1,75.1z M313.4,66.6h11.4c0.9,0,1.7-0.8,1.7-1.7c0-1.1-0.8-1.7-1.7-1.7h-11.4V66.6z"/>
	<path class="st3" d="M365.1,84.2h-12.2l-1.1,3.9h-12.9l11.3-33.9h17.6l11.3,33.9h-12.9L365.1,84.2z M362.6,75.1l-3.3-11.8h-0.6
		l-3.3,11.8H362.6z"/>
	<path class="st3" d="M388.9,63.3h-11.3v-9.1h34.2v9.1h-11.3v24.8h-11.5V63.3z"/>
	<path class="st3" d="M415.1,54.2h11.5v33.9h-11.5V54.2z"/>
	<path class="st3" d="M428.8,54.2h13l7,24.8h0.6l7-24.8h13L458,88.1h-17.8L428.8,54.2z"/>
	<path class="st3" d="M483.4,63.3v3.3h20.8v9.1h-20.8V79h20.8v9.1h-32.2V54.2h32.2v9.1H483.4z"/>
	<path class="st3" d="M548.4,84.2h-12.2l-1.1,3.9h-12.9l11.3-33.9h17.6l11.3,33.9h-12.9L548.4,84.2z M545.9,75.1l-3.3-11.8H542
		l-3.3,11.8H545.9z"/>
	<path class="st3" d="M592.9,75.1l7.5,13h-12.1l-6.8-12.5h-5.2v12.5h-11.5V54.2h24.4c5.4,0,11.3,3.3,11.3,10.6
		C600.5,69.9,597.2,73.9,592.9,75.1z M576.3,66.6h11.4c0.9,0,1.7-0.8,1.7-1.7c0-1.1-0.8-1.7-1.7-1.7h-11.4V66.6z"/>
	<path class="st3" d="M614.1,63.3h-11.3v-9.1h34.2v9.1h-11.3v24.8h-11.5V63.3z"/>
</g>
</svg>
