<?xml version="1.0" encoding="utf-8"?>
<!-- Generator: Adobe Illustrator 28.2.0, SVG Export Plug-In . SVG Version: 6.00 Build 0)  -->
<svg version="1.1" id="Layer_1" xmlns="http://www.w3.org/2000/svg" xmlns:xlink="http://www.w3.org/1999/xlink" x="0px" y="0px"
	 viewBox="0 0 425 474" style="enable-background:new 0 0 425 474;" xml:space="preserve">
<style type="text/css">
	.st0{fill:#AAD9FF;}
	.st1{opacity:0.27;fill:#AAD9FF;enable-background:new    ;}
	.st2{opacity:0.62;fill:#AAD9FF;enable-background:new    ;}
	.st3{fill:#FFFFFF;}
</style>
<g>
	<rect y="0.3" class="st0" width="423" height="127.6"/>
</g>
<rect x="0.1" y="139.8" class="st1" width="422.9" height="40.2"/>
<rect x="24.5" y="217.8" class="st2" width="167.9" height="86.2"/>
<g>
	<path class="st3" d="M66.1,253.9H58v-7.5h25.4v7.5h-8.1v20.9h-9.1V253.9z"/>
	<path class="st3" d="M94,256.9v2.4h14.4v6.6H94v2.4h14.4v6.6H86v-24.6h22.4v6.6H94z"/>
	<path class="st3" d="M129.1,262.6l8.6,12.3h-9.3l-3.8-5.2H124l-3.6,5.2h-10l9-12.3l-9-12.3h10l3.7,5.2h0.5l3.8-5.2h9.3L129.1,262.6
		z"/>
	<path class="st3" d="M146.3,256.9h-7.9v-6.6h23.8v6.6h-7.9v18h-8V256.9z"/>
</g>
<rect x="228.3" y="219.8" class="st2" width="167.9" height="86.2"/>
<g>
	<path class="st3" d="M283.6,270.3v6.6h-20.9v-24.6h8v18H283.6z"/>
	<path class="st3" d="M285.9,252.3h8v24.6h-8V252.3z"/>
	<path class="st3" d="M297.5,252.3h8l10.6,13h0.3v-13h8v24.6h-8l-10.5-12.7h-0.3v12.7h-8V252.3z"/>
	<path class="st3" d="M336,258.9v2.4h14.4v6.6H336v2.4h14.4v6.6H328v-24.6h22.4v6.6H336z"/>
	<path class="st3" d="M353.8,270.3h13.6c1,0,1.4-0.6,1.4-1.3c0-0.8-0.5-1.2-1.5-1.2h-6.1c-4.4,0-7.8-2.4-7.8-7.8
		c0-5.7,4.5-7.8,8.3-7.8h14.1v6.6h-12.9c-1,0-1.4,0.5-1.4,1.2c0,0.7,0.4,1.2,1.4,1.2h5.2c5.6,0,8.9,3,8.9,7.6s-3.4,8-8.7,8h-14.4
		V270.3z"/>
</g>
<rect x="127.3" y="329.8" class="st2" width="167.9" height="86.2"/>
<g>
	<path class="st3" d="M195,360.2h-7.4l-0.6,2.2h-7.2l6-21.5h10.9l6,21.5h-7.2L195,360.2z M193.5,354.4l-2-7.9H191l-2,7.9H193.5z"/>
	<path class="st3" d="M218.8,355.2l3.9,7.1h-6.4l-3.6-6.9h-2.7v6.9H204v-18.6h12.8c2.9,0,6,1.8,6,5.8
		C222.8,352.4,221.1,354.5,218.8,355.2z M210.1,350.6h6c0.5,0,0.9-0.4,0.9-1c0-0.6-0.4-0.9-0.9-0.9h-6V350.6z"/>
	<path class="st3" d="M230,348.7h-6v-5h18v5h-6v13.6H230V348.7z"/>
	<path class="st3" d="M171.6,380.7h6.6l2.1,10.7h0.2l4-5.7h0.3l4,5.7h0.2l2.1-10.7h6.6l-3.7,18.6h-5.9l-3.4-5h-0.2l-3.4,5h-5.9
		L171.6,380.7z"/>
	<path class="st3" d="M198.2,390c0-5.3,4.1-9.6,9.2-9.6c5.1,0,9.2,4.3,9.2,9.6c0,5.3-4.1,9.6-9.2,9.6
		C202.3,399.6,198.2,395.3,198.2,390z M210.7,389.9c0-1.9-1.4-3.4-3.2-3.4c-1.8,0-3.3,1.5-3.3,3.4c0,1.9,1.4,3.4,3.3,3.4
		C209.2,393.4,210.7,391.8,210.7,389.9z"/>
	<path class="st3" d="M233.7,392.2l3.9,7.1h-6.4l-3.6-6.9h-2.7v6.9h-6.1v-18.6h12.8c2.9,0,6,1.8,6,5.8
		C237.7,389.3,235.9,391.5,233.7,392.2z M224.9,387.5h6c0.5,0,0.9-0.4,0.9-1c0-0.6-0.4-0.9-0.9-0.9h-6V387.5z"/>
	<path class="st3" d="M246.8,392.9l-1,1.2v5.3h-6.1v-18.6h6.1v5.8h0.2l4.9-5.8h6.5l-6.7,7.7l7.2,10.9h-6.6l-4.2-6.4H246.8z"/>
</g>
<g>
	<path class="st3" d="M66.3,39.3c0-9.1,7.2-16.2,16.7-16.2c9.4,0,15.6,6,16.1,13.4H88.9c-0.3-1.8-2.6-4.2-6.3-4.2
		c-3.6,0-6.7,2.6-6.7,6.9s3.2,7.1,6.6,7.1c2.6,0,4.4-0.9,5.6-2.8h-5.5v-3.3h16.5C99,48.4,92.5,55.5,83,55.5
		C73.4,55.5,66.3,48.5,66.3,39.3z"/>
	<path class="st3" d="M112.1,35.1v2.7h16.6v7.3h-16.6v2.7h16.6V55h-25.9V27.8h25.9v7.3H112.1z"/>
	<path class="st3" d="M132.8,27.8h9.2l12.2,14.4h0.3V27.8h9.2V55h-9.2l-12.1-14H142v14h-9.2V27.8z"/>
	<path class="st3" d="M177.3,35.1v2.7h16.6v7.3h-16.6v2.7h16.6V55h-25.9V27.8h25.9v7.3H177.3z"/>
	<path class="st3" d="M220.6,44.7l6,10.4h-9.7l-5.4-10h-4.2v10H198V27.8h19.6c4.4,0,9.1,2.6,9.1,8.5C226.6,40.5,224,43.6,220.6,44.7
		z M207.2,37.8h9.1c0.7,0,1.3-0.6,1.3-1.4c0-0.9-0.6-1.3-1.3-1.3h-9.1V37.8z"/>
	<path class="st3" d="M248.7,51.9h-9.8L238,55h-10.3l9.1-27.2h14.1l9.1,27.2h-10.3L248.7,51.9z M246.7,44.6l-2.7-9.5h-0.4l-2.7,9.5
		H246.7z"/>
	<path class="st3" d="M267.8,35.1h-9.1v-7.3h27.4v7.3H277V55h-9.2V35.1z"/>
	<path class="st3" d="M288.8,27.8h9.2V55h-9.2V27.8z"/>
	<path class="st3" d="M299.8,27.8h10.4l5.6,19.9h0.4l5.6-19.9h10.4L323.2,55h-14.3L299.8,27.8z"/>
	<path class="st3" d="M343.6,35.1v2.7h16.6v7.3h-16.6v2.7h16.6V55h-25.9V27.8h25.9v7.3H343.6z"/>
	<path class="st3" d="M186.4,105.9h-9.8l-0.9,3.1h-10.3l9.1-27.2h14.1l9.1,27.2h-10.3L186.4,105.9z M184.4,98.6l-2.7-9.5h-0.4
		l-2.7,9.5H184.4z"/>
	<path class="st3" d="M222.1,98.7l6,10.4h-9.7L213,99h-4.2v10h-9.2V81.8h19.6c4.4,0,9.1,2.6,9.1,8.5
		C228.2,94.5,225.6,97.6,222.1,98.7z M208.8,91.8h9.1c0.7,0,1.3-0.6,1.3-1.4c0-0.9-0.6-1.3-1.3-1.3h-9.1V91.8z"/>
	<path class="st3" d="M239.1,89.1H230v-7.3h27.4v7.3h-9.1V109h-9.2V89.1z"/>
</g>
</svg>
