<?xml version="1.0" encoding="utf-8"?>
<!-- Generator: Adobe Illustrator 28.2.0, SVG Export Plug-In . SVG Version: 6.00 Build 0)  -->
<svg version="1.1" id="Layer_1" xmlns="http://www.w3.org/2000/svg" xmlns:xlink="http://www.w3.org/1999/xlink" x="0px" y="0px"
	 viewBox="0 0 1366 768" style="enable-background:new 0 0 1366 768;" xml:space="preserve">
<style type="text/css">
	.st0{fill:#AAD9FF;}
	.st1{opacity:0.27;fill:#AAD9FF;enable-background:new    ;}
	.st2{opacity:0.62;fill:#AAD9FF;enable-background:new    ;}
	.st3{fill:#FFFFFF;}
</style>
<g>
	<rect x="0.5" y="-0.4" class="st0" width="1366.2" height="235"/>
</g>
<rect x="0.7" y="256.6" class="st1" width="1365.9" height="74"/>
<rect y="432" class="st2" width="409" height="210"/>
<g>
	<path class="st3" d="M101.4,520.1H81.6v-18.3h61.8v18.3h-19.8v51h-22.2V520.1z"/>
	<path class="st3" d="M169.5,527.2v5.8h35.2v16h-35.2v5.9h35.2v16H150v-59.9h54.6v16H169.5z"/>
	<path class="st3" d="M254.8,541.1l21,30h-22.7l-9.2-12.6h-1.3l-8.8,12.6h-24.3l21.9-30l-21.9-29.9h24.3l8.9,12.7h1.2l9.2-12.7h22.7
		L254.8,541.1z"/>
	<path class="st3" d="M296.9,527.2h-19.2v-16h57.9v16h-19.2v43.9h-19.5V527.2z"/>
</g>
<rect x="477" y="432" class="st2" width="409" height="210"/>
<g>
	<path class="st3" d="M611.8,555v16H561v-59.9h19.5V555H611.8z"/>
	<path class="st3" d="M617.5,511.2H637v59.9h-19.5V511.2z"/>
	<path class="st3" d="M645.5,511.2H665l25.8,31.7h0.7v-31.7h19.5v59.9h-19.5l-25.7-30.9H665v30.9h-19.5V511.2z"/>
	<path class="st3" d="M739.4,527.2v5.8h35.2v16h-35.2v5.9h35.2v16h-54.6v-59.9h54.6v16H739.4z"/>
	<path class="st3" d="M782.7,555h33.1c2.5,0,3.5-1.4,3.5-3.1c0-1.9-1.1-2.9-3.6-2.9h-14.9c-10.8,0-19.1-5.7-19.1-18.9
		c0-13.9,10.9-19,20.1-19h34.4v16h-31.4c-2.4,0-3.3,1.3-3.3,2.9c0,1.6,1,3,3.3,3h12.7c13.7,0,21.6,7.3,21.6,18.5
		s-8.2,19.5-21.3,19.5h-35.2V555z"/>
</g>
<rect x="957" y="432" class="st2" width="409" height="210"/>
<g>
	<path class="st3" d="M1121.8,506h-18.1l-1.4,5.3h-17.5l14.7-52.5h26.5l14.7,52.5h-17.5L1121.8,506z M1118.2,492l-4.9-19.3h-1.2
		l-4.9,19.3H1118.2z"/>
	<path class="st3" d="M1180,494l9.6,17.3H1174l-8.7-16.7h-6.7v16.7h-14.7v-45.4h31.3c7,0,14.5,4.3,14.5,14.2
		C1189.7,487,1185.5,492.3,1180,494z M1158.6,482.6h14.6c1.2,0,2.2-1,2.2-2.3c0-1.5-1-2.2-2.2-2.2h-14.6V482.6z"/>
	<path class="st3" d="M1207.1,478.1h-14.5v-12.1h43.8v12.1h-14.5v33.2h-14.7V478.1z"/>
	<path class="st3" d="M1064.9,555.9h16.1l5.1,26h0.6l9.9-13.9h0.7l9.9,13.9h0.6l5.1-26h16.1l-9.1,45.4h-14.5l-8.2-12.1h-0.4
		l-8.2,12.1H1074L1064.9,555.9z"/>
	<path class="st3" d="M1129.7,578.6c0-12.9,10.1-23.4,22.5-23.4c12.4,0,22.4,10.5,22.4,23.4c0,13-10.1,23.5-22.4,23.5
		C1139.8,602.1,1129.7,591.6,1129.7,578.6z M1160.2,578.5c0-4.6-3.5-8.2-7.9-8.2c-4.5,0-8,3.7-8,8.2c0,4.6,3.5,8.3,8,8.3
		C1156.6,586.8,1160.2,583.2,1160.2,578.5z"/>
	<path class="st3" d="M1216.2,584l9.6,17.3h-15.5l-8.7-16.7h-6.7v16.7h-14.7v-45.4h31.3c7,0,14.5,4.3,14.5,14.2
		C1225.9,577,1221.7,582.3,1216.2,584z M1194.8,572.6h14.6c1.2,0,2.2-1,2.2-2.3c0-1.5-1-2.2-2.2-2.2h-14.6V572.6z"/>
	<path class="st3" d="M1248.1,585.6l-2.4,2.9v12.8h-14.7v-45.4h14.7V570h0.5l12-14.1h15.8l-16.4,18.8l17.5,26.5h-16.2l-10.2-15.7
		H1248.1z"/>
</g>
<g>
	<path class="st3" d="M243.9,121c0-20.3,15.9-36.1,37.1-36.1c20.9,0,34.6,13.4,35.7,29.7h-22.4c-0.6-3.9-5.8-9.3-13.9-9.3
		s-14.9,5.8-14.9,15.3c0,9.5,7.1,15.8,14.6,15.8c5.8,0,9.8-2,12.4-6.2h-12.3v-7.4h36.6c-0.2,18.4-14.6,34.3-35.8,34.3
		S243.9,141.5,243.9,121z"/>
	<path class="st3" d="M345.8,111.7v5.9h37v16.2h-37v6h37v16.2h-57.5V95.5h57.5v16.2H345.8z"/>
	<path class="st3" d="M391.8,95.5h20.5l27.1,32h0.7v-32h20.5v60.5h-20.5l-27-31.2h-0.8v31.2h-20.5V95.5z"/>
	<path class="st3" d="M490.6,111.7v5.9h37v16.2h-37v6h37v16.2h-57.5V95.5h57.5v16.2H490.6z"/>
	<path class="st3" d="M586.8,132.9l13.3,23.1h-21.6l-12.1-22.3h-9.3v22.3h-20.5V95.5h43.5c9.7,0,20.2,5.8,20.2,18.9
		C600.3,123.6,594.4,130.6,586.8,132.9z M557.1,117.7h20.3c1.6,0,3-1.4,3-3.1c0-2-1.4-3-3-3h-20.3V117.7z"/>
	<path class="st3" d="M649.3,149.1h-21.8l-2,7h-23l20.2-60.5h31.4l20.2,60.5h-23L649.3,149.1z M644.8,132.8l-5.9-21.1h-1l-5.9,21.1
		H644.8z"/>
	<path class="st3" d="M691.7,111.7h-20.2V95.5h60.9v16.2h-20.2v44.3h-20.5V111.7z"/>
	<path class="st3" d="M738.3,95.5h20.5v60.5h-20.5V95.5z"/>
	<path class="st3" d="M762.8,95.5h23.2l12.4,44.3h1l12.4-44.3h23.2l-20.2,60.5h-31.8L762.8,95.5z"/>
	<path class="st3" d="M860.1,111.7v5.9h37v16.2h-37v6h37v16.2h-57.5V95.5h57.5v16.2H860.1z"/>
	<path class="st3" d="M976.1,149.1h-21.8l-2,7h-23l20.2-60.5h31.4l20.2,60.5h-23L976.1,149.1z M971.6,132.8l-5.9-21.1h-1l-5.9,21.1
		H971.6z"/>
	<path class="st3" d="M1055.5,132.9l13.3,23.1h-21.6l-12.1-22.3h-9.3v22.3h-20.5V95.5h43.5c9.7,0,20.2,5.8,20.2,18.9
		C1069,123.6,1063.1,130.6,1055.5,132.9z M1025.7,117.7h20.3c1.6,0,3-1.4,3-3.1c0-2-1.4-3-3-3h-20.3V117.7z"/>
	<path class="st3" d="M1093.1,111.7h-20.2V95.5h60.9v16.2h-20.2v44.3h-20.5V111.7z"/>
</g>
</svg>
