<?xml version="1.0" encoding="utf-8"?>
<!-- Generator: Adobe Illustrator 28.2.0, SVG Export Plug-In . SVG Version: 6.00 Build 0)  -->
<svg version="1.1" id="Layer_1" xmlns="http://www.w3.org/2000/svg" xmlns:xlink="http://www.w3.org/1999/xlink" x="0px" y="0px"
	 viewBox="0 0 1366 1622" style="enable-background:new 0 0 1366 1622;" xml:space="preserve">
<style type="text/css">
	.st0{opacity:0.62;fill:#AAD9FF;}
	.st1{fill:#AAD9FF;}
	.st2{fill:#FFFFFF;}
	.st3{fill:#3FA9F5;}
	.st4{opacity:0.27;fill:#AAD9FF;}
</style>
<rect x="-3" y="862" class="st0" width="715" height="203"/>
<rect y="405" class="st0" width="550" height="230"/>
<g>
	<rect class="st1" width="1366" height="315"/>
</g>
<g>
	<path class="st2" d="M340.9,96.4h52.1l34.5,49.3h1.8l34.5-49.3H516v155.4h-51.5v-81.2h-1.3l-33.9,45.1h-1.8l-33.9-45.1h-1.3v81.2
		h-51.5V96.4z"/>
	<path class="st2" d="M532.6,173.9c0-44.2,35.6-79.9,79.4-79.9c43.8,0,79.4,35.7,79.4,79.9c0,44.4-35.6,80.1-79.4,80.1
		C568.2,254,532.6,218.3,532.6,173.9z M640.3,173.9c0-15.8-12.8-28.6-28.4-28.6c-15.6,0-28.4,12.9-28.4,28.6
		c0,16,12.8,28.8,28.4,28.8C627.6,202.7,640.3,189.9,640.3,173.9z"/>
	<path class="st2" d="M783.6,194.3h-24.2v57.5h-51.5V96.4h108.9c31.2,0,50.1,18.2,50.1,49.3c0,20.6-13.6,37.3-31.9,44.6l36.9,61.5
		h-55.9L783.6,194.3z M759.4,153.7h47.7c4.8,0,8.4-3.3,8.4-8.4c0-5.5-3.5-8-8.4-8h-47.7V153.7z"/>
	<path class="st2" d="M940,137.3v16.2h84.5v41.1H940v16.4h84.5v40.8H888.5V96.4h135.9v40.8H940z"/>
</g>
<g>
	<path class="st3" d="M157.5,521.6c0-39.5,31-70.3,72.2-70.3c40.7,0,67.4,26.1,69.5,57.8h-43.6c-1.2-7.6-11.3-18.1-27.1-18.1
		s-29,11.3-29,29.8c0,18.5,13.8,30.8,28.4,30.8c11.3,0,19.1-3.9,24.1-12.1h-24v-14.4h71.3c-0.4,35.8-28.4,66.8-69.7,66.8
		S157.5,561.4,157.5,521.6z"/>
	<path class="st3" d="M315,472H355v117.8H315V472z"/>
	<path class="st3" d="M413.4,503.5V515h72.1v31.5h-72.1v43.2h-39.9V472h112v31.5H413.4z"/>
</g>
<g>
	<path class="st3" d="M162,697.6h19.5V780H162V697.6z"/>
	<path class="st3" d="M189.4,708.8h17.1l22.6,37.6h0.6v-37.6h17.1V780h-17.1l-22.5-36.7h-0.7V780h-17.1V708.8z"/>
	<path class="st3" d="M268.6,727.9h-16.8v-19h50.8v19h-16.8V780h-17.1V727.9z"/>
	<path class="st3" d="M325.1,727.9v6.9h30.8v19h-30.8v7.1h30.8v19H308v-71.1h47.9v19H325.1z"/>
	<path class="st3" d="M405.2,752.8l11.1,27.2h-18l-10.1-26.2h-7.8V780h-17.1v-71.1h36.3c8.1,0,16.8,6.8,16.8,22.2
		C416.5,741.9,411.6,750.1,405.2,752.8z M380.5,734.9h16.9c1.3,0,2.5-1.6,2.5-3.6c0-2.4-1.2-3.5-2.5-3.5h-16.9V734.9z"/>
	<path class="st3" d="M457.3,771.7h-18.2l-1.7,8.2h-19.2l16.8-71.1h26.2l16.8,71.1H459L457.3,771.7z M453.6,752.7l-4.9-24.8h-0.8
		l-4.9,24.8H453.6z"/>
	<path class="st3" d="M479.6,744.3c0-20.2,11.7-36.7,26.1-36.7c7.2,0,13.7,4.1,18.4,10.8L512.2,735c-1.7-2.4-3.9-3.8-6.5-3.8
		c-5.2,0-9.3,5.8-9.3,12.9c0,7.3,4.1,13.1,9.3,13.1c2.6,0,4.9-1.5,6.6-4l12,16.8c-4.8,6.8-11.3,11.1-18.6,11.1
		C491.3,781.1,479.6,764.7,479.6,744.3z"/>
	<path class="st3" d="M543.6,727.9h-16.8v-19h50.8v19h-16.8V780h-17.1V727.9z"/>
	<path class="st3" d="M582.6,708.8h17.1V780h-17.1V708.8z"/>
	<path class="st3" d="M603,708.8h19.3l10.3,52.1h0.8l10.3-52.1h19.3L646.3,780h-26.5L603,708.8z"/>
	<path class="st3" d="M684,727.9v6.9h30.8v19H684v7.1h30.8v19h-47.9v-71.1h47.9v19H684z"/>
	<path class="st3" d="M780.7,771.7h-18.2l-1.7,8.2h-19.2l16.8-71.1h26.2l16.8,71.1h-19.2L780.7,771.7z M776.9,752.7l-4.9-24.8h-0.8
		l-4.9,24.8H776.9z"/>
	<path class="st3" d="M846.9,752.8L858,780h-18l-10.1-26.2h-7.8V780H805v-71.1h36.3c8.1,0,16.8,6.8,16.8,22.2
		C858.1,741.9,853.2,750.1,846.9,752.8z M822.1,734.9h16.9c1.3,0,2.5-1.6,2.5-3.6c0-2.4-1.2-3.5-2.5-3.5h-16.9V734.9z"/>
	<path class="st3" d="M878.3,727.9h-16.8v-19h50.8v19h-16.8V780h-17.1V727.9z"/>
	<path class="st3" d="M937,708.8h18.7l5.9,40.8h0.7l11.4-21.8h0.8l11.4,21.8h0.7l5.9-40.8h18.7l-10.6,71.1h-16.8l-9.5-19h-0.5
		l-9.5,19h-16.8L937,708.8z"/>
	<path class="st3" d="M1012.2,744.3c0-20.2,11.7-36.7,26.1-36.7c14.3,0,26,16.5,26,36.7c0,20.3-11.7,36.8-26,36.8
		C1023.9,781.1,1012.2,764.7,1012.2,744.3z M1047.5,744.2c0-7.2-4.1-12.9-9.2-12.9c-5.2,0-9.3,5.8-9.3,12.9c0,7.3,4.1,13.1,9.3,13.1
		C1043.4,757.3,1047.5,751.5,1047.5,744.2z"/>
	<path class="st3" d="M1112.4,752.8l11.1,27.2h-18l-10.1-26.2h-7.8V780h-17.1v-71.1h36.3c8.1,0,16.8,6.8,16.8,22.2
		C1123.6,741.9,1118.7,750.1,1112.4,752.8z M1087.6,734.9h16.9c1.3,0,2.5-1.6,2.5-3.6c0-2.4-1.2-3.5-2.5-3.5h-16.9V734.9z"/>
	<path class="st3" d="M1149.4,755.4l-2.8,4.5V780h-17.1v-71.1h17.1v22.1h0.6l13.9-22.1h18.3l-19,29.5l20.3,41.6h-18.8l-11.8-24.6
		H1149.4z"/>
</g>
<g>
	<path class="st3" d="M271.3,938.5c0,18.4-16.9,32.9-35.6,32.9h-36.1v38.6h-35V905.3h72.6C258.4,905.3,271.3,917.6,271.3,938.5z
		 M236.3,938.2c0-3.6-2.4-5.2-5.7-5.2h-31v10.8h31C233.9,943.8,236.3,941.5,236.3,938.2z"/>
	<path class="st3" d="M383.9,919.5v90.5h-30.7v-33.2h-42.3v33.2h-30.7v-90.5h30.7v33.1h42.3v-33.1H383.9z"/>
	<path class="st3" d="M395.1,964.7c0-25.7,20.9-46.7,46.8-46.7c25.7,0,46.7,20.9,46.7,46.7c0,25.9-20.9,46.8-46.7,46.8
		C416.1,1011.5,395.1,990.6,395.1,964.7z M458.4,964.6c0-9.1-7.3-16.5-16.5-16.5c-9.3,0-16.6,7.3-16.6,16.5
		c0,9.3,7.3,16.6,16.6,16.6C451.1,981.2,458.4,973.8,458.4,964.6z"/>
	<path class="st3" d="M521.9,943.8h-30.2v-24.2h91.1v24.2h-30.2v66.3h-30.7V943.8z"/>
	<path class="st3" d="M585.7,964.7c0-25.7,20.9-46.7,46.8-46.7c25.7,0,46.7,20.9,46.7,46.7c0,25.9-20.9,46.8-46.7,46.8
		C606.7,1011.5,585.7,990.6,585.7,964.7z M649,964.6c0-9.1-7.3-16.5-16.5-16.5c-9.3,0-16.6,7.3-16.6,16.5c0,9.3,7.3,16.6,16.6,16.6
		C641.7,981.2,649,973.8,649,964.6z"/>
</g>
<rect x="112.1" y="659" class="st4" width="1253.9" height="178.6"/>
<rect x="134" y="1294.2" class="st0" width="690.1" height="195.9"/>
<g>
	<path class="st3" d="M291.9,1175.8c0-27.5,17.8-48.9,41.5-48.9c23.4,0,38.7,18.2,39.9,40.2h-25c-0.7-5.3-6.5-12.6-15.5-12.6
		c-9.1,0-16.6,7.9-16.6,20.7c0,12.9,7.9,21.4,16.3,21.4c6.5,0,11-2.7,13.9-8.4h-13.7v-10h40.9c-0.2,24.9-16.3,46.5-40,46.5
		C309.7,1224.7,291.9,1203.4,291.9,1175.8z"/>
	<path class="st3" d="M405.8,1163.2v8h41.3v22h-41.3v8.1h41.3v22h-64.3v-82h64.3v22H405.8z"/>
	<path class="st3" d="M457.2,1141.2h22.9l30.3,43.4h0.8v-43.4h22.9v82h-22.9l-30.2-42.3h-0.9v42.3h-22.9V1141.2z"/>
	<path class="st3" d="M567.6,1163.2v8h41.3v22h-41.3v8.1h41.3v22h-64.3v-82h64.3v22H567.6z"/>
	<path class="st3" d="M675.1,1191.9l14.9,31.3h-24.1l-13.5-30.2h-10.4v30.2H619v-82h48.6c10.8,0,22.6,7.9,22.6,25.6
		C690.2,1179.3,683.6,1188.8,675.1,1191.9z M641.9,1171.3h22.7c1.8,0,3.4-1.9,3.4-4.2c0-2.7-1.6-4.1-3.4-4.1h-22.7V1171.3z"/>
	<path class="st3" d="M744.9,1213.7h-24.4l-2.2,9.5h-25.7l22.6-82h35.1l22.6,82h-25.7L744.9,1213.7z M739.9,1191.7l-6.6-28.6h-1.1
		l-6.6,28.6H739.9z"/>
	<path class="st3" d="M792.3,1163.2h-22.6v-22h68.1v22h-22.6v60h-22.9V1163.2z"/>
	<path class="st3" d="M844.5,1141.2h22.9v82h-22.9V1141.2z"/>
	<path class="st3" d="M871.9,1141.2h25.9l13.9,60h1.1l13.9-60h25.9l-22.6,82h-35.5L871.9,1141.2z"/>
	<path class="st3" d="M980.5,1163.2v8h41.3v22h-41.3v8.1h41.3v22h-64.3v-82h64.3v22H980.5z"/>
	<path class="st3" d="M1110.1,1213.7h-24.4l-2.2,9.5h-25.7l22.6-82h35.1l22.6,82h-25.7L1110.1,1213.7z M1105.1,1191.7l-6.6-28.6
		h-1.1l-6.6,28.6H1105.1z"/>
	<path class="st3" d="M1198.9,1191.9l14.9,31.3h-24.1l-13.5-30.2h-10.4v30.2h-22.9v-82h48.6c10.8,0,22.6,7.9,22.6,25.6
		C1213.9,1179.3,1207.4,1188.8,1198.9,1191.9z M1165.7,1171.3h22.7c1.8,0,3.4-1.9,3.4-4.2c0-2.7-1.6-4.1-3.4-4.1h-22.7V1171.3z"/>
	<path class="st3" d="M1241,1163.2h-22.6v-22h68.1v22h-22.6v60H1241V1163.2z"/>
</g>
<g>
	<path class="st3" d="M282.4,1389.7c0-32.8,21.2-58.3,49.4-58.3c27.8,0,46.1,21.6,47.5,47.9h-29.8c-0.8-6.3-7.7-15-18.5-15
		c-10.8,0-19.8,9.4-19.8,24.7c0,15.3,9.5,25.5,19.4,25.5c7.7,0,13-3.2,16.5-10h-16.4v-11.9h48.7c-0.3,29.7-19.4,55.4-47.7,55.4
		S282.4,1422.6,282.4,1389.7z"/>
	<path class="st3" d="M461.3,1420v26.2h-71.2v-97.7h27.3v71.5H461.3z"/>
	<path class="st3" d="M469.3,1348.5h27.3v97.7h-27.3V1348.5z"/>
	<path class="st3" d="M531.4,1374.7h-26.9v-26.2h81.1v26.2h-26.9v71.5h-27.3V1374.7z"/>
	<path class="st3" d="M588.3,1397.3c0-27.8,18.6-50.4,41.7-50.4c11.4,0,21.8,5.6,29.4,14.9l-19,22.8c-2.7-3.2-6.3-5.2-10.4-5.2
		c-8.3,0-14.8,7.9-14.8,17.8c0,10,6.5,17.9,14.8,17.9c4.1,0,7.9-2.1,10.5-5.5l19.2,23.1c-7.6,9.4-18.1,15.2-29.7,15.2
		C606.9,1447.8,588.3,1425.2,588.3,1397.3z"/>
	<path class="st3" d="M759.9,1348.5v97.7h-27.3v-35.8h-37.7v35.8h-27.3v-97.7h27.3v35.7h37.7v-35.7H759.9z"/>
</g>
<rect x="238.9" y="1089.7" class="st4" width="1129.1" height="172.4"/>
</svg>
