<?xml version="1.0" encoding="utf-8"?>
<!-- Generator: Adobe Illustrator 28.2.0, SVG Export Plug-In . SVG Version: 6.00 Build 0)  -->
<svg version="1.1" id="Layer_1" xmlns="http://www.w3.org/2000/svg" xmlns:xlink="http://www.w3.org/1999/xlink" x="0px" y="0px"
	 viewBox="0 0 425 632" style="enable-background:new 0 0 425 632;" xml:space="preserve">
<style type="text/css">
	.st0{opacity:0.62;fill:#AAD9FF;}
	.st1{fill:#AAD9FF;}
	.st2{fill:#FFFFFF;}
	.st3{fill:#3FA9F5;}
	.st4{opacity:0.27;fill:#AAD9FF;}
</style>
<rect x="-0.5" y="336.9" class="st0" width="236.3" height="67.1"/>
<rect x="0.5" y="185.9" class="st0" width="181.8" height="76"/>
<g>
	<rect x="1.1" y="2.3" class="st1" width="423" height="136.3"/>
</g>
<g>
	<path class="st2" d="M106.7,71h16.1l10.7,15.3h0.5L144.8,71h16.1v48.1H145V93.9h-0.4l-10.5,14h-0.5l-10.5-14h-0.4v25.2h-15.9V71z"
		/>
	<path class="st2" d="M166.1,95c0-13.7,11-24.7,24.6-24.7s24.6,11.1,24.6,24.7c0,13.7-11,24.8-24.6,24.8S166.1,108.7,166.1,95z
		 M199.4,95c0-4.9-3.9-8.9-8.8-8.9c-4.8,0-8.8,4-8.8,8.9c0,4.9,3.9,8.9,8.8,8.9C195.5,103.9,199.4,99.9,199.4,95z"/>
	<path class="st2" d="M243.8,101.3h-7.5v17.8h-15.9V71h33.7c9.7,0,15.5,5.6,15.5,15.3c0,6.4-4.2,11.5-9.9,13.8l11.4,19h-17.3
		L243.8,101.3z M236.3,88.7h14.8c1.5,0,2.6-1,2.6-2.6c0-1.7-1.1-2.5-2.6-2.5h-14.8V88.7z"/>
	<path class="st2" d="M292.2,83.6v5h26.2v12.7h-26.2v5.1h26.2v12.6h-42.1V71h42.1v12.6H292.2z"/>
</g>
<g>
	<path class="st3" d="M52.6,224.4c0-13.1,10.2-23.2,23.9-23.2c13.4,0,22.3,8.6,23,19.1H85c-0.4-2.5-3.7-6-8.9-6s-9.6,3.7-9.6,9.8
		c0,6.1,4.6,10.2,9.4,10.2c3.7,0,6.3-1.3,8-4h-7.9v-4.8h23.6c-0.1,11.8-9.4,22.1-23,22.1S52.6,237.6,52.6,224.4z"/>
	<path class="st3" d="M104.6,208h13.2V247h-13.2V208z"/>
	<path class="st3" d="M137.1,218.5v3.8H161v10.4h-23.8V247h-13.2V208h37v10.4H137.1z"/>
</g>
<g>
	<path class="st3" d="M54.1,282.6h6.4v27.2h-6.4V282.6z"/>
	<path class="st3" d="M63.1,286.3h5.6l7.5,12.4h0.2v-12.4h5.6v23.5h-5.6L69,297.7h-0.2v12.1h-5.6V286.3z"/>
	<path class="st3" d="M89.3,292.6h-5.6v-6.3h16.8v6.3h-5.6v17.2h-5.6V292.6z"/>
	<path class="st3" d="M108,292.6v2.3h10.2v6.3H108v2.3h10.2v6.3h-15.8v-23.5h15.8v6.3H108z"/>
	<path class="st3" d="M134.5,300.8l3.7,9h-6l-3.3-8.7h-2.6v8.7h-5.6v-23.5h12c2.7,0,5.6,2.3,5.6,7.3
		C138.2,297.2,136.5,299.9,134.5,300.8z M126.3,294.9h5.6c0.4,0,0.8-0.5,0.8-1.2c0-0.8-0.4-1.2-0.8-1.2h-5.6V294.9z"/>
	<path class="st3" d="M151.7,307.1h-6l-0.6,2.7h-6.3l5.6-23.5h8.6l5.6,23.5h-6.3L151.7,307.1z M150.4,300.8l-1.6-8.2h-0.3l-1.6,8.2
		H150.4z"/>
	<path class="st3" d="M159,298c0-6.7,3.9-12.1,8.6-12.1c2.4,0,4.5,1.4,6.1,3.6l-3.9,5.5c-0.6-0.8-1.3-1.2-2.1-1.2
		c-1.7,0-3.1,1.9-3.1,4.3c0,2.4,1.3,4.3,3.1,4.3c0.9,0,1.6-0.5,2.2-1.3l4,5.6c-1.6,2.3-3.7,3.7-6.1,3.7
		C162.9,310.2,159,304.8,159,298z"/>
	<path class="st3" d="M180.2,292.6h-5.6v-6.3h16.8v6.3h-5.6v17.2h-5.6V292.6z"/>
	<path class="st3" d="M193,286.3h5.6v23.5H193V286.3z"/>
	<path class="st3" d="M199.8,286.3h6.4l3.4,17.2h0.3l3.4-17.2h6.4l-5.6,23.5h-8.8L199.8,286.3z"/>
	<path class="st3" d="M226.6,292.6v2.3h10.2v6.3h-10.2v2.3h10.2v6.3h-15.8v-23.5h15.8v6.3H226.6z"/>
	<path class="st3" d="M258.5,307.1h-6l-0.6,2.7h-6.3l5.6-23.5h8.6l5.6,23.5h-6.3L258.5,307.1z M257.3,300.8l-1.6-8.2h-0.3l-1.6,8.2
		H257.3z"/>
	<path class="st3" d="M280.4,300.8l3.7,9h-5.9l-3.3-8.7h-2.6v8.7h-5.6v-23.5h12c2.7,0,5.6,2.3,5.6,7.3
		C284.1,297.2,282.5,299.9,280.4,300.8z M272.2,294.9h5.6c0.4,0,0.8-0.5,0.8-1.2c0-0.8-0.4-1.2-0.8-1.2h-5.6V294.9z"/>
	<path class="st3" d="M290.8,292.6h-5.6v-6.3H302v6.3h-5.6v17.2h-5.6V292.6z"/>
	<path class="st3" d="M310.2,286.3h6.2l2,13.5h0.2l3.8-7.2h0.3l3.8,7.2h0.2l2-13.5h6.2l-3.5,23.5h-5.5l-3.1-6.3h-0.2l-3.1,6.3h-5.5
		L310.2,286.3z"/>
	<path class="st3" d="M335,298c0-6.7,3.9-12.1,8.6-12.1c4.7,0,8.6,5.4,8.6,12.1c0,6.7-3.9,12.2-8.6,12.2
		C338.9,310.2,335,304.8,335,298z M346.7,298c0-2.4-1.3-4.3-3-4.3c-1.7,0-3.1,1.9-3.1,4.3c0,2.4,1.3,4.3,3.1,4.3
		C345.3,302.3,346.7,300.4,346.7,298z"/>
	<path class="st3" d="M368.1,300.8l3.7,9h-5.9l-3.3-8.7H360v8.7h-5.6v-23.5h12c2.7,0,5.6,2.3,5.6,7.3
		C371.9,297.2,370.2,299.9,368.1,300.8z M360,294.9h5.6c0.4,0,0.8-0.5,0.8-1.2c0-0.8-0.4-1.2-0.8-1.2H360V294.9z"/>
	<path class="st3" d="M380.4,301.7l-0.9,1.5v6.6h-5.6v-23.5h5.6v7.3h0.2l4.6-7.3h6.1L384,296l6.7,13.8h-6.2l-3.9-8.1H380.4z"/>
</g>
<g>
	<path class="st3" d="M90.2,362.2c0,6.1-5.6,10.9-11.8,10.9H66.5v12.8H54.9v-34.6h24C85.9,351.2,90.2,355.3,90.2,362.2z M78.6,362.1
		c0-1.2-0.8-1.7-1.9-1.7H66.5v3.6h10.2C77.8,363.9,78.6,363.2,78.6,362.1z"/>
	<path class="st3" d="M127.4,355.9v29.9h-10.1v-11h-14v11H93.1v-29.9h10.1v10.9h14v-10.9H127.4z"/>
	<path class="st3" d="M131.1,370.9c0-8.5,6.9-15.4,15.5-15.4c8.5,0,15.4,6.9,15.4,15.4c0,8.6-6.9,15.5-15.4,15.5
		C138,386.3,131.1,379.4,131.1,370.9z M152,370.8c0-3-2.4-5.4-5.4-5.4c-3.1,0-5.5,2.4-5.5,5.4c0,3.1,2.4,5.5,5.5,5.5
		C149.6,376.3,152,373.9,152,370.8z"/>
	<path class="st3" d="M173,363.9h-10v-8h30.1v8h-10v21.9H173V363.9z"/>
	<path class="st3" d="M194.1,370.9c0-8.5,6.9-15.4,15.5-15.4c8.5,0,15.4,6.9,15.4,15.4c0,8.6-6.9,15.5-15.4,15.5
		C201,386.3,194.1,379.4,194.1,370.9z M215,370.8c0-3-2.4-5.4-5.4-5.4c-3.1,0-5.5,2.4-5.5,5.4c0,3.1,2.4,5.5,5.5,5.5
		C212.6,376.3,215,373.9,215,370.8z"/>
</g>
<rect x="37.6" y="269.8" class="st4" width="385.9" height="59"/>
<rect x="-0.5" y="481.9" class="st0" width="236.9" height="67.3"/>
<g>
	<path class="st3" d="M53.7,441.2c0-9.4,6.1-16.8,14.2-16.8c8,0,13.3,6.2,13.7,13.8H73c-0.2-1.8-2.2-4.3-5.3-4.3
		c-3.1,0-5.7,2.7-5.7,7.1c0,4.4,2.7,7.3,5.6,7.3c2.2,0,3.8-0.9,4.8-2.9h-4.7v-3.4h14c-0.1,8.6-5.6,16-13.7,16
		C59.8,458,53.7,450.7,53.7,441.2z"/>
	<path class="st3" d="M92.8,436.9v2.7H107v7.5H92.8v2.8H107v7.5H84.9v-28.1H107v7.5H92.8z"/>
	<path class="st3" d="M110.4,429.4h7.9l10.4,14.9h0.3v-14.9h7.9v28.1H129L118.6,443h-0.3v14.5h-7.9V429.4z"/>
	<path class="st3" d="M148.3,436.9v2.7h14.2v7.5h-14.2v2.8h14.2v7.5h-22.1v-28.1h22.1v7.5H148.3z"/>
	<path class="st3" d="M185.2,446.8l5.1,10.7h-8.3l-4.6-10.4h-3.6v10.4H166v-28.1h16.7c3.7,0,7.7,2.7,7.7,8.8
		C190.4,442.4,188.2,445.7,185.2,446.8z M173.8,439.7h7.8c0.6,0,1.2-0.7,1.2-1.4c0-0.9-0.5-1.4-1.2-1.4h-7.8V439.7z"/>
	<path class="st3" d="M209.2,454.3h-8.4l-0.8,3.3h-8.8l7.7-28.1h12l7.7,28.1H210L209.2,454.3z M207.5,446.7l-2.3-9.8h-0.4l-2.3,9.8
		H207.5z"/>
	<path class="st3" d="M225.5,436.9h-7.7v-7.5h23.4v7.5h-7.7v20.6h-7.9V436.9z"/>
	<path class="st3" d="M243.4,429.4h7.9v28.1h-7.9V429.4z"/>
	<path class="st3" d="M252.8,429.4h8.9l4.8,20.6h0.4l4.8-20.6h8.9l-7.7,28.1h-12.2L252.8,429.4z"/>
	<path class="st3" d="M290.1,436.9v2.7h14.2v7.5h-14.2v2.8h14.2v7.5h-22.1v-28.1h22.1v7.5H290.1z"/>
	<path class="st3" d="M334.6,454.3h-8.4l-0.8,3.3h-8.8l7.7-28.1h12l7.7,28.1h-8.8L334.6,454.3z M332.8,446.7l-2.3-9.8h-0.4l-2.3,9.8
		H332.8z"/>
	<path class="st3" d="M365,446.8l5.1,10.7h-8.3l-4.6-10.4h-3.6v10.4h-7.9v-28.1h16.7c3.7,0,7.7,2.7,7.7,8.8
		C370.2,442.4,367.9,445.7,365,446.8z M353.6,439.7h7.8c0.6,0,1.2-0.7,1.2-1.4c0-0.9-0.5-1.4-1.2-1.4h-7.8V439.7z"/>
	<path class="st3" d="M379.5,436.9h-7.7v-7.5h23.4v7.5h-7.7v20.6h-7.9V436.9z"/>
</g>
<g>
	<path class="st3" d="M50.4,514.7c0-11.2,7.3-20,17-20c9.6,0,15.8,7.4,16.3,16.5H73.5c-0.3-2.2-2.7-5.2-6.4-5.2
		c-3.7,0-6.8,3.2-6.8,8.5c0,5.3,3.2,8.8,6.7,8.8c2.7,0,4.5-1.1,5.7-3.4H67v-4.1h16.7c-0.1,10.2-6.7,19-16.4,19S50.4,526,50.4,514.7z
		"/>
	<path class="st3" d="M111.9,525.1v9H87.4v-33.5h9.4v24.5H111.9z"/>
	<path class="st3" d="M114.6,500.5h9.4v33.5h-9.4V500.5z"/>
	<path class="st3" d="M135.9,509.5h-9.2v-9h27.8v9h-9.2v24.5h-9.4V509.5z"/>
	<path class="st3" d="M155.4,517.3c0-9.5,6.4-17.3,14.3-17.3c3.9,0,7.5,1.9,10.1,5.1l-6.5,7.8c-0.9-1.1-2.1-1.8-3.6-1.8
		c-2.8,0-5.1,2.7-5.1,6.1c0,3.4,2.2,6.2,5.1,6.2c1.4,0,2.7-0.7,3.6-1.9l6.6,7.9c-2.6,3.2-6.2,5.2-10.2,5.2
		C161.8,534.6,155.4,526.9,155.4,517.3z"/>
	<path class="st3" d="M214.3,500.5v33.5H205v-12.3H192v12.3h-9.4v-33.5h9.4v12.2H205v-12.2H214.3z"/>
</g>
<rect x="35.5" y="411.7" class="st4" width="387.6" height="59.2"/>
</svg>
