<?xml version="1.0" encoding="utf-8"?>
<!-- Generator: Adobe Illustrator 28.2.0, SVG Export Plug-In . SVG Version: 6.00 Build 0)  -->
<svg version="1.1" id="Layer_1" xmlns="http://www.w3.org/2000/svg" xmlns:xlink="http://www.w3.org/1999/xlink" x="0px" y="0px"
	 viewBox="0 0 768 1093" style="enable-background:new 0 0 768 1093;" xml:space="preserve">
<style type="text/css">
	.st0{opacity:0.62;fill:#AAD9FF;}
	.st1{fill:#AAD9FF;}
	.st2{fill:#FFFFFF;}
	.st3{fill:#3FA9F5;}
	.st4{opacity:0.27;fill:#AAD9FF;}
</style>
<rect x="2.7" y="569.6" class="st0" width="427.5" height="121.4"/>
<rect x="4.5" y="296.4" class="st0" width="328.9" height="137.5"/>
<g>
	<rect x="2.5" y="-2" class="st1" width="765.5" height="246.7"/>
</g>
<g>
	<path class="st2" d="M193.6,122.2h29.2l19.4,27.6h1l19.3-27.6h29.2v87.1h-28.8v-45.5h-0.7l-19,25.2h-1l-19-25.2h-0.7v45.5h-28.8
		V122.2z"/>
	<path class="st2" d="M301,165.6c0-24.7,20-44.8,44.5-44.8c24.5,0,44.5,20,44.5,44.8c0,24.9-20,44.9-44.5,44.9
		C320.9,210.5,301,190.5,301,165.6z M361.4,165.6c0-8.8-7.1-16-15.9-16c-8.8,0-15.9,7.2-15.9,16c0,9,7.1,16.2,15.9,16.2
		C354.2,181.8,361.4,174.6,361.4,165.6z"/>
	<path class="st2" d="M441.6,177h-13.6v32.2h-28.8v-87.1h61c17.5,0,28.1,10.2,28.1,27.6c0,11.6-7.6,20.9-17.9,25l20.7,34.4h-31.3
		L441.6,177z M428.1,154.3h26.7c2.7,0,4.7-1.9,4.7-4.7c0-3.1-2-4.5-4.7-4.5h-26.7V154.3z"/>
	<path class="st2" d="M529.3,145.1v9.1h47.3v23h-47.3v9.2h47.3v22.9h-76.2v-87.1h76.2v22.9H529.3z"/>
</g>
<g>
	<path class="st3" d="M98.7,366.1c0-23.6,18.5-42,43.2-42c24.3,0,40.3,15.6,41.6,34.6h-26.1c-0.7-4.5-6.8-10.8-16.2-10.8
		c-9.4,0-17.3,6.8-17.3,17.8c0,11.1,8.3,18.4,17,18.4c6.8,0,11.4-2.3,14.4-7.2h-14.3v-8.6h42.6c-0.2,21.4-17,39.9-41.7,39.9
		S98.7,389.9,98.7,366.1z"/>
	<path class="st3" d="M192.9,336.4h23.9v70.4h-23.9V336.4z"/>
	<path class="st3" d="M251.7,355.3v6.9h43.1V381h-43.1v25.8h-23.9v-70.4h67v18.9H251.7z"/>
</g>
<g>
	<path class="st3" d="M101.4,471.3H113v49.2h-11.7V471.3z"/>
	<path class="st3" d="M117.8,478H128l13.5,22.5h0.3V478H152v42.5h-10.2l-13.5-21.9H128v21.9h-10.2V478z"/>
	<path class="st3" d="M165.1,489.4H155V478h30.4v11.4h-10.1v31.1h-10.2V489.4z"/>
	<path class="st3" d="M198.8,489.4v4.1h18.4V505h-18.4v4.2h18.4v11.4h-28.7V478h28.7v11.4H198.8z"/>
	<path class="st3" d="M246.8,504.3l6.6,16.2h-10.8l-6-15.7H232v15.7h-10.2V478h21.7c4.8,0,10.1,4.1,10.1,13.3
		C253.5,497.8,250.6,502.7,246.8,504.3z M232,493.6h10.1c0.8,0,1.5-1,1.5-2.2c0-1.4-0.7-2.1-1.5-2.1H232V493.6z"/>
	<path class="st3" d="M278,515.6h-10.9l-1,4.9h-11.5l10.1-42.5h15.7l10.1,42.5h-11.5L278,515.6z M275.7,504.2l-2.9-14.8h-0.5
		l-2.9,14.8H275.7z"/>
	<path class="st3" d="M291.3,499.3c0-12.1,7-21.9,15.6-21.9c4.3,0,8.2,2.5,11,6.5l-7.1,9.9c-1-1.4-2.3-2.2-3.9-2.2
		c-3.1,0-5.5,3.4-5.5,7.7c0,4.4,2.4,7.8,5.5,7.8c1.5,0,2.9-0.9,3.9-2.4l7.2,10.1c-2.8,4.1-6.8,6.6-11.1,6.6
		C298.2,521.3,291.3,511.4,291.3,499.3z"/>
	<path class="st3" d="M329.5,489.4h-10.1V478h30.4v11.4h-10.1v31.1h-10.2V489.4z"/>
	<path class="st3" d="M352.8,478H363v42.5h-10.2V478z"/>
	<path class="st3" d="M365,478h11.6l6.2,31.1h0.5l6.2-31.1H401l-10.1,42.5h-15.8L365,478z"/>
	<path class="st3" d="M413.5,489.4v4.1h18.4V505h-18.4v4.2h18.4v11.4h-28.7V478h28.7v11.4H413.5z"/>
	<path class="st3" d="M471.3,515.6h-10.9l-1,4.9H448L458,478h15.7l10.1,42.5h-11.5L471.3,515.6z M469.1,504.2l-2.9-14.8h-0.5
		l-2.9,14.8H469.1z"/>
	<path class="st3" d="M510.9,504.3l6.6,16.2h-10.8l-6-15.7h-4.6v15.7h-10.2V478h21.7c4.8,0,10.1,4.1,10.1,13.3
		C517.6,497.8,514.7,502.7,510.9,504.3z M496.1,493.6h10.1c0.8,0,1.5-1,1.5-2.2c0-1.4-0.7-2.1-1.5-2.1h-10.1V493.6z"/>
	<path class="st3" d="M529.7,489.4h-10.1V478h30.4v11.4h-10.1v31.1h-10.2V489.4z"/>
	<path class="st3" d="M564.8,478h11.2l3.5,24.4h0.4l6.8-13h0.5l6.8,13h0.4l3.5-24.4h11.2l-6.3,42.5h-10l-5.7-11.4h-0.3l-5.7,11.4
		h-10L564.8,478z"/>
	<path class="st3" d="M609.7,499.3c0-12.1,7-21.9,15.6-21.9c8.6,0,15.6,9.8,15.6,21.9c0,12.2-7,22-15.6,22
		C616.7,521.3,609.7,511.4,609.7,499.3z M630.8,499.2c0-4.3-2.4-7.7-5.5-7.7c-3.1,0-5.5,3.4-5.5,7.7c0,4.4,2.4,7.8,5.5,7.8
		C628.4,507,630.8,503.5,630.8,499.2z"/>
	<path class="st3" d="M669.6,504.3l6.6,16.2h-10.8l-6-15.7h-4.6v15.7h-10.2V478h21.7c4.8,0,10.1,4.1,10.1,13.3
		C676.4,497.8,673.4,502.7,669.6,504.3z M654.8,493.6h10.1c0.8,0,1.5-1,1.5-2.2c0-1.4-0.7-2.1-1.5-2.1h-10.1V493.6z"/>
	<path class="st3" d="M691.8,505.9l-1.7,2.7v12h-10.2V478h10.2v13.2h0.3l8.3-13.2h11l-11.4,17.6l12.1,24.9h-11.2l-7.1-14.7H691.8z"
		/>
</g>
<g>
	<path class="st3" d="M166.7,615.4c0,11-10.1,19.7-21.3,19.7h-21.6v23.1h-20.9v-62.6h43.4C159,595.5,166.7,602.9,166.7,615.4z
		 M145.8,615.2c0-2.1-1.4-3.1-3.4-3.1h-18.5v6.4h18.5C144.3,618.5,145.8,617.2,145.8,615.2z"/>
	<path class="st3" d="M234,604v54.1h-18.3v-19.9h-25.3v19.9h-18.3V604h18.3v19.8h25.3V604H234z"/>
	<path class="st3" d="M240.8,631c0-15.4,12.5-27.9,28-27.9c15.4,0,27.9,12.5,27.9,27.9c0,15.5-12.5,28-27.9,28
		C253.3,659,240.8,646.5,240.8,631z M278.6,630.9c0-5.5-4.4-9.8-9.8-9.8c-5.5,0-9.9,4.4-9.9,9.8c0,5.5,4.4,9.9,9.9,9.9
		C274.2,640.9,278.6,636.5,278.6,630.9z"/>
	<path class="st3" d="M316.5,618.5h-18.1V604h54.5v14.5h-18.1v39.6h-18.3V618.5z"/>
	<path class="st3" d="M354.7,631c0-15.4,12.5-27.9,28-27.9c15.4,0,27.9,12.5,27.9,27.9c0,15.5-12.5,28-27.9,28
		C367.2,659,354.7,646.5,354.7,631z M392.6,630.9c0-5.5-4.4-9.8-9.8-9.8c-5.5,0-9.9,4.4-9.9,9.8c0,5.5,4.4,9.9,9.9,9.9
		C388.2,640.9,392.6,636.5,392.6,630.9z"/>
</g>
<rect x="71.5" y="448.3" class="st4" width="695.5" height="106.8"/>
<rect x="2.9" y="837.4" class="st0" width="427.5" height="121.4"/>
<g>
	<path class="st3" d="M100.7,764c0-17,11-30.3,25.7-30.3c14.5,0,24,11.2,24.7,24.9h-15.5c-0.4-3.3-4-7.8-9.6-7.8
		c-5.6,0-10.3,4.9-10.3,12.8s4.9,13.3,10.1,13.3c4,0,6.8-1.7,8.6-5.2h-8.5v-6.2h25.3c-0.1,15.4-10.1,28.8-24.8,28.8
		C111.7,794.3,100.7,781.2,100.7,764z"/>
	<path class="st3" d="M171.3,756.2v5h25.6v13.6h-25.6v5h25.6v13.6h-39.8v-50.8h39.8v13.6H171.3z"/>
	<path class="st3" d="M203.1,742.6h14.2l18.8,26.9h0.5v-26.9h14.2v50.8h-14.2l-18.7-26.2h-0.6v26.2h-14.2V742.6z"/>
	<path class="st3" d="M271.5,756.2v5h25.6v13.6h-25.6v5h25.6v13.6h-39.8v-50.8h39.8v13.6H271.5z"/>
	<path class="st3" d="M338.1,774l9.2,19.4h-15l-8.4-18.7h-6.4v18.7h-14.2v-50.8h30.1c6.7,0,14,4.9,14,15.9
		C347.4,766.2,343.4,772.1,338.1,774z M317.5,761.3h14.1c1.1,0,2.1-1.2,2.1-2.6c0-1.7-1-2.5-2.1-2.5h-14.1V761.3z"/>
	<path class="st3" d="M381.4,787.5h-15.1l-1.4,5.9H349l14-50.8h21.7l14,50.8h-15.9L381.4,787.5z M378.3,773.9l-4.1-17.7h-0.7
		l-4.1,17.7H378.3z"/>
	<path class="st3" d="M410.7,756.2h-14v-13.6h42.2v13.6h-14v37.2h-14.2V756.2z"/>
	<path class="st3" d="M443.1,742.6h14.2v50.8h-14.2V742.6z"/>
	<path class="st3" d="M460,742.6h16.1l8.6,37.2h0.7l8.6-37.2H510l-14,50.8h-22L460,742.6z"/>
	<path class="st3" d="M527.3,756.2v5h25.6v13.6h-25.6v5h25.6v13.6h-39.8v-50.8h39.8v13.6H527.3z"/>
	<path class="st3" d="M607.6,787.5h-15.1l-1.4,5.9h-15.9l14-50.8h21.7l14,50.8H609L607.6,787.5z M604.5,773.9l-4.1-17.7h-0.7
		l-4.1,17.7H604.5z"/>
	<path class="st3" d="M662.6,774l9.2,19.4h-15l-8.4-18.7H642v18.7h-14.2v-50.8H658c6.7,0,14,4.9,14,15.9
		C671.9,766.2,667.9,772.1,662.6,774z M642,761.3h14.1c1.1,0,2.1-1.2,2.1-2.6c0-1.7-1-2.5-2.1-2.5H642V761.3z"/>
	<path class="st3" d="M688.7,756.2h-14v-13.6h42.2v13.6h-14v37.2h-14.2V756.2z"/>
</g>
<g>
	<path class="st3" d="M94.8,896.6c0-20.3,13.1-36.1,30.6-36.1c17.2,0,28.5,13.4,29.4,29.7h-18.5c-0.5-3.9-4.8-9.3-11.5-9.3
		c-6.7,0-12.3,5.8-12.3,15.3c0,9.5,5.9,15.8,12,15.8c4.8,0,8.1-2,10.2-6.2h-10.1v-7.4h30.2c-0.2,18.4-12,34.3-29.5,34.3
		S94.8,917,94.8,896.6z"/>
	<path class="st3" d="M205.6,915.4v16.2h-44.1v-60.5h16.9v44.3H205.6z"/>
	<path class="st3" d="M210.6,871.1h16.9v60.5h-16.9V871.1z"/>
	<path class="st3" d="M249.1,887.3h-16.7v-16.2h50.2v16.2H266v44.3h-16.9V887.3z"/>
	<path class="st3" d="M284.3,901.3c0-17.2,11.5-31.2,25.8-31.2c7.1,0,13.5,3.5,18.2,9.2l-11.8,14.1c-1.6-2-3.9-3.2-6.4-3.2
		c-5.1,0-9.2,4.9-9.2,11c0,6.2,4,11.1,9.2,11.1c2.6,0,4.9-1.3,6.5-3.4l11.9,14.3c-4.7,5.8-11.2,9.4-18.4,9.4
		C295.9,932.6,284.3,918.6,284.3,901.3z"/>
	<path class="st3" d="M390.6,871.1v60.5h-16.9v-22.2h-23.3v22.2h-16.9v-60.5h16.9v22.1h23.3v-22.1H390.6z"/>
</g>
<rect x="67.9" y="710.7" class="st4" width="699.5" height="106.8"/>
</svg>
