<?xml version="1.0" encoding="utf-8"?>
<!-- Generator: Adobe Illustrator 28.2.0, SVG Export Plug-In . SVG Version: 6.00 Build 0)  -->
<svg version="1.1" id="Layer_1" xmlns="http://www.w3.org/2000/svg" xmlns:xlink="http://www.w3.org/1999/xlink" x="0px" y="0px"
	 viewBox="0 0 1366 4103" style="enable-background:new 0 0 1366 4103;" xml:space="preserve">
<style type="text/css">
	.st0{fill:#AAD9FF;}
	.st1{opacity:0.27;fill:#AAD9FF;enable-background:new    ;}
	.st2{opacity:0.62;fill:#AAD9FF;enable-background:new    ;}
	.st3{fill:#FFFFFF;}
</style>
<g>
	<rect x="0.4" y="-0.1" class="st0" width="1366.2" height="235"/>
</g>
<rect x="0.6" y="256.9" class="st1" width="1365.9" height="74"/>
<rect x="752" y="670" class="st1" width="614" height="103"/>
<rect y="1119" class="st2" width="683" height="230"/>
<rect x="752" y="1661" class="st1" width="614" height="154"/>
<rect y="2198" class="st2" width="683" height="190"/>
<g>
	<path class="st3" d="M547.4,104c0,16-14.7,28.6-30.9,28.6h-31.3v33.5h-30.4v-91h63.1C536.3,75.1,547.4,85.8,547.4,104z M517,103.7
		c0-3.1-2.1-4.6-4.9-4.6h-26.9v9.4h26.9C514.9,108.5,517,106.6,517,103.7z"/>
	<path class="st3" d="M645.3,87.5v78.7h-26.7v-28.9h-36.8v28.9h-26.7V87.5h26.7v28.7h36.8V87.5H645.3z"/>
	<path class="st3" d="M655.1,126.7c0-22.4,18.2-40.6,40.7-40.6c22.4,0,40.6,18.2,40.6,40.6c0,22.5-18.2,40.7-40.6,40.7
		C673.3,167.4,655.1,149.2,655.1,126.7z M710.1,126.6c0-7.9-6.4-14.3-14.3-14.3c-8.1,0-14.4,6.4-14.4,14.3c0,8.1,6.4,14.4,14.4,14.4
		C703.7,141,710.1,134.7,710.1,126.6z"/>
	<path class="st3" d="M765.2,108.5h-26.3V87.5h79.2v21.1h-26.3v57.6h-26.7V108.5z"/>
	<path class="st3" d="M820.7,126.7c0-22.4,18.2-40.6,40.7-40.6c22.4,0,40.6,18.2,40.6,40.6c0,22.5-18.2,40.7-40.6,40.7
		C838.9,167.4,820.7,149.2,820.7,126.7z M875.7,126.6c0-7.9-6.4-14.3-14.3-14.3c-8.1,0-14.4,6.4-14.4,14.3c0,8.1,6.4,14.4,14.4,14.4
		C869.3,141,875.7,134.7,875.7,126.6z"/>
</g>
<rect y="3703" class="st1" width="614" height="103"/>
<rect x="683" y="3060" class="st2" width="683" height="230"/>
</svg>
