<?xml version="1.0" encoding="utf-8"?>
<!-- Generator: Adobe Illustrator 28.2.0, SVG Export Plug-In . SVG Version: 6.00 Build 0)  -->
<svg version="1.1" id="Layer_1" xmlns="http://www.w3.org/2000/svg" xmlns:xlink="http://www.w3.org/1999/xlink" x="0px" y="0px"
	 viewBox="0 0 425 1316" style="enable-background:new 0 0 425 1316;" xml:space="preserve">
<style type="text/css">
	.st0{fill:#AAD9FF;}
	.st1{opacity:0.27;fill:#AAD9FF;enable-background:new    ;}
	.st2{opacity:0.62;fill:#AAD9FF;enable-background:new    ;}
	.st3{fill:#FFFFFF;}
</style>
<g>
	<rect x="0.3" y="3.2" class="st0" width="424.7" height="73.1"/>
</g>
<rect x="0.4" y="83.1" class="st1" width="424.6" height="23"/>
<rect x="234" y="211.5" class="st1" width="190.9" height="32"/>
<rect x="0.2" y="351" class="st2" width="212.3" height="71.5"/>
<rect x="234" y="519.5" class="st1" width="190.9" height="47.9"/>
<rect x="0.2" y="686.5" class="st2" width="212.3" height="59.1"/>
<g>
	<path class="st3" d="M170.4,35.5c0,5-4.6,8.9-9.6,8.9H151v10.4h-9.5V26.6h19.6C166.9,26.6,170.4,29.9,170.4,35.5z M160.9,35.4
		c0-1-0.6-1.4-1.5-1.4H151v2.9h8.4C160.3,36.9,160.9,36.3,160.9,35.4z"/>
	<path class="st3" d="M200.8,30.4v24.4h-8.3v-9h-11.4v9h-8.3V30.4h8.3v8.9h11.4v-8.9H200.8z"/>
	<path class="st3" d="M203.8,42.6c0-6.9,5.7-12.6,12.6-12.6c6.9,0,12.6,5.7,12.6,12.6c0,7-5.7,12.6-12.6,12.6
		C209.5,55.2,203.8,49.6,203.8,42.6z M220.9,42.6c0-2.5-2-4.4-4.4-4.4c-2.5,0-4.5,2-4.5,4.4c0,2.5,2,4.5,4.5,4.5
		C218.9,47,220.9,45.1,220.9,42.6z"/>
	<path class="st3" d="M238.1,36.9h-8.2v-6.5h24.6v6.5h-8.2v17.9h-8.3V36.9z"/>
	<path class="st3" d="M255.3,42.6c0-6.9,5.7-12.6,12.6-12.6c6.9,0,12.6,5.7,12.6,12.6c0,7-5.7,12.6-12.6,12.6
		C261,55.2,255.3,49.6,255.3,42.6z M272.4,42.6c0-2.5-2-4.4-4.4-4.4c-2.5,0-4.5,2-4.5,4.4c0,2.5,2,4.5,4.5,4.5
		C270.4,47,272.4,45.1,272.4,42.6z"/>
</g>
<rect x="0.2" y="1154.3" class="st1" width="190.9" height="32"/>
<rect x="212.5" y="954.4" class="st2" width="212.3" height="71.5"/>
</svg>
