<?xml version="1.0" encoding="utf-8"?>
<!-- Generator: Adobe Illustrator 28.2.0, SVG Export Plug-In . SVG Version: 6.00 Build 0)  -->
<svg version="1.1" id="Layer_1" xmlns="http://www.w3.org/2000/svg" xmlns:xlink="http://www.w3.org/1999/xlink" x="0px" y="0px"
	 viewBox="0 0 768 2255" style="enable-background:new 0 0 768 2255;" xml:space="preserve">
<style type="text/css">
	.st0{fill:#AAD9FF;}
	.st1{opacity:0.27;fill:#AAD9FF;enable-background:new    ;}
	.st2{opacity:0.62;fill:#AAD9FF;enable-background:new    ;}
	.st3{fill:#FFFFFF;}
</style>
<g>
	<rect x="0.3" y="0.3" class="st0" width="767.2" height="132"/>
</g>
<rect x="0.4" y="144.6" class="st1" width="767" height="41.6"/>
<rect x="422.4" y="376.6" class="st1" width="344.8" height="57.8"/>
<rect x="0.1" y="628.7" class="st2" width="383.5" height="129.2"/>
<rect x="422.4" y="933.1" class="st1" width="344.8" height="86.5"/>
<rect x="0.1" y="1234.6" class="st2" width="383.5" height="106.7"/>
<g>
	<path class="st3" d="M307.5,58.7c0,9-8.2,16.1-17.4,16.1h-17.6v18.8h-17.1V42.5h35.4C301.2,42.5,307.5,48.5,307.5,58.7z
		 M290.4,58.6c0-1.8-1.2-2.6-2.8-2.6h-15.1v5.3h15.1C289.3,61.3,290.4,60.2,290.4,58.6z"/>
	<path class="st3" d="M362.5,49.4v44.2h-15V77.4h-20.7v16.2h-15V49.4h15v16.1h20.7V49.4H362.5z"/>
	<path class="st3" d="M368,71.5c0-12.6,10.2-22.8,22.8-22.8c12.6,0,22.8,10.2,22.8,22.8c0,12.6-10.2,22.8-22.8,22.8
		C378.2,94.3,368,84.1,368,71.5z M398.8,71.4c0-4.5-3.6-8-8-8c-4.5,0-8.1,3.6-8.1,8c0,4.5,3.6,8.1,8.1,8.1
		C395.3,79.5,398.8,75.9,398.8,71.4z"/>
	<path class="st3" d="M429.8,61.3H415V49.4h44.5v11.8h-14.7v32.3h-15V61.3z"/>
	<path class="st3" d="M461,71.5c0-12.6,10.2-22.8,22.8-22.8c12.6,0,22.8,10.2,22.8,22.8c0,12.6-10.2,22.8-22.8,22.8
		C471.2,94.3,461,84.1,461,71.5z M491.8,71.4c0-4.5-3.6-8-8-8c-4.5,0-8.1,3.6-8.1,8c0,4.5,3.6,8.1,8.1,8.1
		C488.3,79.5,491.8,75.9,491.8,71.4z"/>
</g>
<rect x="0.1" y="2079.7" class="st1" width="344.8" height="57.8"/>
<rect x="383.6" y="1718.7" class="st2" width="383.5" height="129.2"/>
</svg>
